<?xml version="1.0" encoding="UTF-8" standalone="no"?><svg xmlns="http://www.w3.org/2000/svg" xmlns:xlink="http://www.w3.org/1999/xlink" contentStyleType="text/css" height="890px" preserveAspectRatio="none" style="width:1263px;height:890px;background:#FFFFFF;" version="1.1" viewBox="0 0 1263 890" width="1263px" zoomAndPan="magnify"><defs/><g><!--MD5=[15636c1ca4a123c16a2a1a8e90aca7a9]
cluster Model--><g id="cluster_Model"><rect height="374" rx="2.5" ry="2.5" style="stroke:#181818;stroke-width:1.0;fill:none;" width="222" x="1035.5443" y="100.96"/><text fill="#000000" font-family="sans-serif" font-size="14" font-weight="bold" lengthAdjust="spacing" textLength="44" x="1124.5443" y="117.4932">Model</text></g><!--MD5=[e964c2537204c4818a6857a4ece8a291]
cluster C--><g id="cluster_C"><rect height="793" rx="2.5" ry="2.5" style="stroke:#181818;stroke-width:1.0;fill:none;" width="781" x="214.5443" y="91.96"/><text fill="#000000" font-family="sans-serif" font-size="14" font-weight="bold" lengthAdjust="spacing" textLength="71" x="569.5443" y="108.4932">Controller</text></g><!--MD5=[f0789761eec2cabcf7c4ba06675ad196]
cluster PHP 8.1--><g id="cluster_PHP 8.1"><path d="M454.0443,518.96 L507.0443,518.96 A3.75,3.75 0 0 1 509.5443,521.46 L516.5443,542.5694 L961.0443,542.5694 A2.5,2.5 0 0 1 963.5443,545.0694 L963.5443,669.46 A2.5,2.5 0 0 1 961.0443,671.96 L454.0443,671.96 A2.5,2.5 0 0 1 451.5443,669.46 L451.5443,521.46 A2.5,2.5 0 0 1 454.0443,518.96 " style="stroke:#000000;stroke-width:1.5;fill:none;"/><line style="stroke:#000000;stroke-width:1.5;fill:none;" x1="451.5443" x2="516.5443" y1="542.5694" y2="542.5694"/><text fill="#000000" font-family="sans-serif" font-size="14" font-weight="bold" lengthAdjust="spacing" textLength="52" x="455.5443" y="535.4932">PHP 8.1</text></g><!--MD5=[e320b41f2d43b11d6de1346cab4ea5fc]
cluster View--><g id="cluster_View"><rect height="116" rx="2.5" ry="2.5" style="stroke:#181818;stroke-width:1.0;fill:none;" width="167" x="7.5443" y="100.96"/><text fill="#000000" font-family="sans-serif" font-size="14" font-weight="bold" lengthAdjust="spacing" textLength="33" x="74.5443" y="117.4932">View</text></g><!--MD5=[fe5c13e661ec308c9a0439e22e22ba7b]
class ImageModel--><g id="elem_ImageModel"><rect codeLine="2" fill="#F1F1F1" height="188.875" id="ImageModel" rx="2.5" ry="2.5" style="stroke:#181818;stroke-width:0.5;" width="166" x="1067.5443" y="261.96"/><ellipse cx="1108.6443" cy="277.96" fill="#ADD1B2" rx="11" ry="11" style="stroke:#181818;stroke-width:1.0;"/><path d="M1111.4099,273.835 Q1111.5662,273.6163 1111.7537,273.5069 Q1111.9412,273.3975 1112.1599,273.3975 Q1112.5349,273.3975 1112.7693,273.6631 Q1113.0037,273.9131 1113.0037,274.5225 L1113.0037,275.9756 Q1113.0037,276.585 1112.7693,276.8506 Q1112.5349,277.1163 1112.1599,277.1163 Q1111.8162,277.1163 1111.6131,276.9131 Q1111.4099,276.7256 1111.3006,276.21 Q1111.2537,275.8506 1111.0662,275.6631 Q1110.7381,275.2881 1110.1287,275.0694 Q1109.5193,274.8506 1108.8943,274.8506 Q1108.1287,274.8506 1107.4881,275.1788 Q1106.8631,275.5069 1106.3631,276.2569 Q1105.8787,277.0069 1105.8787,278.0381 L1105.8787,279.1319 Q1105.8787,280.3663 1106.7693,281.1944 Q1107.6599,282.0069 1109.2537,282.0069 Q1110.1912,282.0069 1110.8474,281.7569 Q1111.2381,281.6006 1111.6599,281.1631 Q1111.9256,280.8975 1112.0662,280.8194 Q1112.2224,280.7413 1112.4256,280.7413 Q1112.7537,280.7413 1113.0037,281.0069 Q1113.2693,281.2569 1113.2693,281.6006 Q1113.2693,281.9444 1112.9256,282.3506 Q1112.4256,282.9288 1111.6287,283.2569 Q1110.5506,283.71 1109.2537,283.71 Q1107.7381,283.71 1106.5349,283.085 Q1105.5506,282.585 1104.8631,281.5225 Q1104.1756,280.4444 1104.1756,279.1631 L1104.1756,278.0069 Q1104.1756,276.6788 1104.7849,275.5381 Q1105.4099,274.3819 1106.5037,273.7725 Q1107.5974,273.1475 1108.8318,273.1475 Q1109.5662,273.1475 1110.2068,273.3194 Q1110.8631,273.4756 1111.4099,273.835 Z " fill="#000000"/><text fill="#000000" font-family="sans-serif" font-size="14" lengthAdjust="spacing" textLength="76" x="1128.4443" y="283.6885">ImageModel</text><line style="stroke:#181818;stroke-width:0.5;" x1="1068.5443" x2="1232.5443" y1="293.96" y2="293.96"/><rect fill="none" height="6" style="stroke:#C82930;stroke-width:1.0;" width="6" x="1075.5443" y="301.96"/><text fill="#000000" font-family="sans-serif" font-size="14" lengthAdjust="spacing" textLength="38" x="1087.5443" y="312.4932">id : int</text><rect fill="none" height="6" style="stroke:#C82930;stroke-width:1.0;" width="6" x="1075.5443" y="319.5694"/><text fill="#000000" font-family="sans-serif" font-size="14" lengthAdjust="spacing" textLength="100" x="1087.5443" y="330.1026">filename : string</text><rect fill="none" height="6" style="stroke:#C82930;stroke-width:1.0;" width="6" x="1075.5443" y="337.1788"/><text fill="#000000" font-family="sans-serif" font-size="14" lengthAdjust="spacing" textLength="69" x="1087.5443" y="347.712">title : string</text><rect fill="none" height="6" style="stroke:#C82930;stroke-width:1.0;" width="6" x="1075.5443" y="354.7881"/><text fill="#000000" font-family="sans-serif" font-size="14" lengthAdjust="spacing" textLength="116" x="1087.5443" y="365.3213">description : string</text><line style="stroke:#181818;stroke-width:0.5;" x1="1068.5443" x2="1232.5443" y1="372.3975" y2="372.3975"/><ellipse cx="1078.5443" cy="383.3975" fill="#84BE84" rx="3" ry="3" style="stroke:#038048;stroke-width:1.0;"/><text fill="#000000" font-family="sans-serif" font-size="14" lengthAdjust="spacing" textLength="62" x="1087.5443" y="390.9307">int getID()</text><ellipse cx="1078.5443" cy="401.0069" fill="#84BE84" rx="3" ry="3" style="stroke:#038048;stroke-width:1.0;"/><text fill="#000000" font-family="sans-serif" font-size="14" lengthAdjust="spacing" textLength="128" x="1087.5443" y="408.5401">string getFileName()</text><ellipse cx="1078.5443" cy="418.6163" fill="#84BE84" rx="3" ry="3" style="stroke:#038048;stroke-width:1.0;"/><text fill="#000000" font-family="sans-serif" font-size="14" lengthAdjust="spacing" textLength="96" x="1087.5443" y="426.1495">string getTitle()</text><ellipse cx="1078.5443" cy="436.2256" fill="#84BE84" rx="3" ry="3" style="stroke:#038048;stroke-width:1.0;"/><text fill="#000000" font-family="sans-serif" font-size="14" lengthAdjust="spacing" textLength="140" x="1087.5443" y="443.7588">string getDescription()</text></g><!--MD5=[964f074a2dd77d134c21b891bb53e381]
class Image--><g id="elem_Image"><rect fill="#F1F1F1" height="48" id="Image" rx="2.5" ry="2.5" style="stroke:#181818;stroke-width:0.5;" width="71" x="1115.0443" y="144.96"/><ellipse cx="1130.0443" cy="160.96" fill="#B4A7E5" rx="11" ry="11" style="stroke:#181818;stroke-width:1.0;"/><path d="M1130.9974,157.6006 L1130.9974,164.2569 L1132.7162,164.2569 Q1133.3256,164.2569 1133.5912,164.4913 Q1133.8568,164.7256 1133.8568,165.1163 Q1133.8568,165.4913 1133.5912,165.7256 Q1133.3256,165.96 1132.7162,165.96 L1127.5756,165.96 Q1126.9662,165.96 1126.7006,165.7256 Q1126.4349,165.4913 1126.4349,165.1006 Q1126.4349,164.7256 1126.7006,164.4913 Q1126.9662,164.2569 1127.5756,164.2569 L1129.2943,164.2569 L1129.2943,157.6006 L1127.5756,157.6006 Q1126.9662,157.6006 1126.7006,157.3663 Q1126.4349,157.1319 1126.4349,156.7413 Q1126.4349,156.3663 1126.7006,156.1319 Q1126.9662,155.8975 1127.5756,155.8975 L1132.7162,155.8975 Q1133.3256,155.8975 1133.5912,156.1319 Q1133.8568,156.3663 1133.8568,156.7413 Q1133.8568,157.1319 1133.5912,157.3663 Q1133.3256,157.6006 1132.7162,157.6006 L1130.9974,157.6006 Z " fill="#000000"/><text fill="#000000" font-family="sans-serif" font-size="14" font-style="italic" lengthAdjust="spacing" textLength="39" x="1144.0443" y="166.6885">Image</text><line style="stroke:#181818;stroke-width:0.5;" x1="1116.0443" x2="1185.0443" y1="176.96" y2="176.96"/><line style="stroke:#181818;stroke-width:0.5;" x1="1116.0443" x2="1185.0443" y1="184.96" y2="184.96"/></g><!--MD5=[62db8e4c2d9e0408f5650e8d9a685ff5]
class DB--><g id="elem_DB"><rect codeLine="15" fill="#F1F1F1" height="188.875" id="DB" rx="2.5" ry="2.5" style="stroke:#181818;stroke-width:0.5;" width="186" x="246.5443" y="510.96"/><ellipse cx="325.7943" cy="526.96" fill="#ADD1B2" rx="11" ry="11" style="stroke:#181818;stroke-width:1.0;"/><path d="M328.5599,522.835 Q328.7162,522.6163 328.9037,522.5069 Q329.0912,522.3975 329.3099,522.3975 Q329.6849,522.3975 329.9193,522.6631 Q330.1537,522.9131 330.1537,523.5225 L330.1537,524.9756 Q330.1537,525.585 329.9193,525.8506 Q329.6849,526.1163 329.3099,526.1163 Q328.9662,526.1163 328.7631,525.9131 Q328.5599,525.7256 328.4506,525.21 Q328.4037,524.8506 328.2162,524.6631 Q327.8881,524.2881 327.2787,524.0694 Q326.6693,523.8506 326.0443,523.8506 Q325.2787,523.8506 324.6381,524.1788 Q324.0131,524.5069 323.5131,525.2569 Q323.0287,526.0069 323.0287,527.0381 L323.0287,528.1319 Q323.0287,529.3663 323.9193,530.1944 Q324.8099,531.0069 326.4037,531.0069 Q327.3412,531.0069 327.9974,530.7569 Q328.3881,530.6006 328.8099,530.1631 Q329.0756,529.8975 329.2162,529.8194 Q329.3724,529.7413 329.5756,529.7413 Q329.9037,529.7413 330.1537,530.0069 Q330.4193,530.2569 330.4193,530.6006 Q330.4193,530.9444 330.0756,531.3506 Q329.5756,531.9288 328.7787,532.2569 Q327.7006,532.71 326.4037,532.71 Q324.8881,532.71 323.6849,532.085 Q322.7006,531.585 322.0131,530.5225 Q321.3256,529.4444 321.3256,528.1631 L321.3256,527.0069 Q321.3256,525.6788 321.9349,524.5381 Q322.5599,523.3819 323.6537,522.7725 Q324.7474,522.1475 325.9818,522.1475 Q326.7162,522.1475 327.3568,522.3194 Q328.0131,522.4756 328.5599,522.835 Z " fill="#000000"/><text fill="#000000" font-family="sans-serif" font-size="14" lengthAdjust="spacing" textLength="19" x="346.2943" y="532.6885">DB</text><line style="stroke:#181818;stroke-width:0.5;" x1="247.5443" x2="431.5443" y1="542.96" y2="542.96"/><rect fill="none" height="6" style="stroke:#C82930;stroke-width:1.0;" width="6" x="254.5443" y="550.96"/><text fill="#000000" font-family="sans-serif" font-size="14" lengthAdjust="spacing" textLength="160" x="266.5443" y="561.4932">iniPath = "../DB/config.ini"</text><rect fill="none" height="6" style="stroke:#C82930;stroke-width:1.0;" width="6" x="254.5443" y="568.5694"/><text fill="#000000" font-family="sans-serif" font-size="14" lengthAdjust="spacing" textLength="64" x="266.5443" y="579.1026">dbe : DBE</text><rect fill="none" height="6" style="stroke:#C82930;stroke-width:1.0;" width="6" x="254.5443" y="586.1788"/><text fill="#000000" font-family="sans-serif" font-size="14" lengthAdjust="spacing" textLength="70" x="266.5443" y="596.712">dns : string</text><rect fill="none" height="6" style="stroke:#C82930;stroke-width:1.0;" width="6" x="254.5443" y="603.7881"/><text fill="#000000" font-family="sans-serif" font-size="14" lengthAdjust="spacing" textLength="75" x="266.5443" y="614.3213">user : string</text><rect fill="none" height="6" style="stroke:#C82930;stroke-width:1.0;" width="6" x="254.5443" y="621.3975"/><text fill="#000000" font-family="sans-serif" font-size="14" lengthAdjust="spacing" textLength="77" x="266.5443" y="631.9307">pass : string</text><line style="stroke:#181818;stroke-width:0.5;" x1="247.5443" x2="431.5443" y1="639.0069" y2="639.0069"/><ellipse cx="257.5443" cy="650.0069" fill="#84BE84" rx="3" ry="3" style="stroke:#038048;stroke-width:1.0;"/><text fill="#000000" font-family="sans-serif" font-size="14" lengthAdjust="spacing" textLength="105" x="266.5443" y="657.5401">getDNS() : string</text><ellipse cx="257.5443" cy="667.6163" fill="#84BE84" rx="3" ry="3" style="stroke:#038048;stroke-width:1.0;"/><text fill="#000000" font-family="sans-serif" font-size="14" lengthAdjust="spacing" textLength="106" x="266.5443" y="675.1495">getUser() : string</text><ellipse cx="257.5443" cy="685.2256" fill="#84BE84" rx="3" ry="3" style="stroke:#038048;stroke-width:1.0;"/><text fill="#000000" font-family="sans-serif" font-size="14" lengthAdjust="spacing" textLength="108" x="266.5443" y="692.7588">getPass() : string</text></g><!--MD5=[1d7ba1c7002d54515419844fbd155368]
class Controller--><g id="elem_Controller"><rect codeLine="26" fill="#F1F1F1" height="65.6094" id="Controller" rx="2.5" ry="2.5" style="stroke:#181818;stroke-width:0.5;" width="221" x="431.0443" y="135.96"/><ellipse cx="506.2943" cy="151.96" fill="#B4A7E5" rx="11" ry="11" style="stroke:#181818;stroke-width:1.0;"/><path d="M507.2474,148.6006 L507.2474,155.2569 L508.9662,155.2569 Q509.5756,155.2569 509.8412,155.4913 Q510.1068,155.7256 510.1068,156.1163 Q510.1068,156.4913 509.8412,156.7256 Q509.5756,156.96 508.9662,156.96 L503.8256,156.96 Q503.2162,156.96 502.9506,156.7256 Q502.6849,156.4913 502.6849,156.1006 Q502.6849,155.7256 502.9506,155.4913 Q503.2162,155.2569 503.8256,155.2569 L505.5443,155.2569 L505.5443,148.6006 L503.8256,148.6006 Q503.2162,148.6006 502.9506,148.3663 Q502.6849,148.1319 502.6849,147.7413 Q502.6849,147.3663 502.9506,147.1319 Q503.2162,146.8975 503.8256,146.8975 L508.9662,146.8975 Q509.5756,146.8975 509.8412,147.1319 Q510.1068,147.3663 510.1068,147.7413 Q510.1068,148.1319 509.8412,148.3663 Q509.5756,148.6006 508.9662,148.6006 L507.2474,148.6006 Z " fill="#000000"/><text fill="#000000" font-family="sans-serif" font-size="14" font-style="italic" lengthAdjust="spacing" textLength="62" x="526.7943" y="157.6885">Controller</text><line style="stroke:#181818;stroke-width:0.5;" x1="432.0443" x2="651.0443" y1="167.96" y2="167.96"/><line style="stroke:#181818;stroke-width:0.5;" x1="432.0443" x2="651.0443" y1="175.96" y2="175.96"/><ellipse cx="442.0443" cy="186.96" fill="#84BE84" rx="3" ry="3" style="stroke:#038048;stroke-width:1.0;"/><text fill="#000000" font-family="sans-serif" font-size="14" lengthAdjust="spacing" textLength="195" x="451.0443" y="194.4932">fetchAll() : array &lt;Object&gt; | null</text></g><!--MD5=[6a6037a4625d36d1df6c06733c8c6098]
class ImageController--><g id="elem_ImageController"><rect codeLine="30" fill="#F1F1F1" height="100.8281" id="ImageController" rx="2.5" ry="2.5" style="stroke:#181818;stroke-width:0.5;" width="260" x="411.5443" y="305.96"/><ellipse cx="487.2943" cy="321.96" fill="#ADD1B2" rx="11" ry="11" style="stroke:#181818;stroke-width:1.0;"/><path d="M490.0599,317.835 Q490.2162,317.6163 490.4037,317.5069 Q490.5912,317.3975 490.8099,317.3975 Q491.1849,317.3975 491.4193,317.6631 Q491.6537,317.9131 491.6537,318.5225 L491.6537,319.9756 Q491.6537,320.585 491.4193,320.8506 Q491.1849,321.1163 490.8099,321.1163 Q490.4662,321.1163 490.2631,320.9131 Q490.0599,320.7256 489.9506,320.21 Q489.9037,319.8506 489.7162,319.6631 Q489.3881,319.2881 488.7787,319.0694 Q488.1693,318.8506 487.5443,318.8506 Q486.7787,318.8506 486.1381,319.1788 Q485.5131,319.5069 485.0131,320.2569 Q484.5287,321.0069 484.5287,322.0381 L484.5287,323.1319 Q484.5287,324.3663 485.4193,325.1944 Q486.3099,326.0069 487.9037,326.0069 Q488.8412,326.0069 489.4974,325.7569 Q489.8881,325.6006 490.3099,325.1631 Q490.5756,324.8975 490.7162,324.8194 Q490.8724,324.7413 491.0756,324.7413 Q491.4037,324.7413 491.6537,325.0069 Q491.9193,325.2569 491.9193,325.6006 Q491.9193,325.9444 491.5756,326.3506 Q491.0756,326.9288 490.2787,327.2569 Q489.2006,327.71 487.9037,327.71 Q486.3881,327.71 485.1849,327.085 Q484.2006,326.585 483.5131,325.5225 Q482.8256,324.4444 482.8256,323.1631 L482.8256,322.0069 Q482.8256,320.6788 483.4349,319.5381 Q484.0599,318.3819 485.1537,317.7725 Q486.2474,317.1475 487.4818,317.1475 Q488.2162,317.1475 488.8568,317.3194 Q489.5131,317.4756 490.0599,317.835 Z " fill="#000000"/><text fill="#000000" font-family="sans-serif" font-size="14" lengthAdjust="spacing" textLength="100" x="507.7943" y="327.6885">ImageController</text><line style="stroke:#181818;stroke-width:0.5;" x1="412.5443" x2="670.5443" y1="337.96" y2="337.96"/><rect fill="none" height="6" style="stroke:#C82930;stroke-width:1.0;" width="6" x="419.5443" y="345.96"/><text fill="#000000" font-family="sans-serif" font-size="14" lengthAdjust="spacing" textLength="66" x="431.5443" y="356.4932">pdo : PDO</text><rect fill="none" height="6" style="stroke:#C82930;stroke-width:1.0;" width="6" x="419.5443" y="363.5694"/><text fill="#000000" font-family="sans-serif" font-size="14" lengthAdjust="spacing" textLength="47" x="431.5443" y="374.1026">db : DB</text><line style="stroke:#181818;stroke-width:0.5;" x1="412.5443" x2="670.5443" y1="381.1788" y2="381.1788"/><ellipse cx="422.5443" cy="392.1788" fill="#84BE84" rx="3" ry="3" style="stroke:#038048;stroke-width:1.0;"/><text fill="#000000" font-family="sans-serif" font-size="14" lengthAdjust="spacing" textLength="234" x="431.5443" y="399.712">fetchAll() :  array &lt;ImageModel&gt; | null</text></g><!--MD5=[29de60c9a5203e29a189a6875bc78c95]
class DBE--><g id="elem_DBE"><rect codeLine="45" fill="#F1F1F1" height="100.8281" id="DBE" rx="2.5" ry="2.5" style="stroke:#181818;stroke-width:0.5;" width="89" x="295.0443" y="759.96"/><ellipse cx="323.0943" cy="775.96" fill="#EB937F" rx="11" ry="11" style="stroke:#181818;stroke-width:1.0;"/><path d="M321.9537,776.7569 L321.9537,779.2569 L326.2818,779.2569 L326.2818,778.335 Q326.2818,777.7256 326.5162,777.46 Q326.7662,777.1944 327.1412,777.1944 Q327.5162,777.1944 327.7506,777.46 Q327.9849,777.7256 327.9849,778.335 L327.9849,780.96 L319.9849,780.96 Q319.3599,780.96 319.0943,780.7256 Q318.8443,780.4913 318.8443,780.1006 Q318.8443,779.7256 319.1099,779.4913 Q319.3756,779.2569 319.9849,779.2569 L320.2506,779.2569 L320.2506,772.6006 L319.9849,772.6006 Q319.3599,772.6006 319.0943,772.3663 Q318.8443,772.1319 318.8443,771.7413 Q318.8443,771.3663 319.0943,771.1319 Q319.3599,770.8975 319.9849,770.8975 L327.6099,770.8975 L327.6099,773.4913 Q327.6099,774.1006 327.3756,774.3663 Q327.1568,774.6163 326.7662,774.6163 Q326.3912,774.6163 326.1568,774.3663 Q325.9224,774.1006 325.9224,773.4913 L325.9224,772.6006 L321.9537,772.6006 L321.9537,775.0538 L323.4381,775.0538 Q323.4381,774.3975 323.5631,774.21 Q323.8287,773.8038 324.2974,773.8038 Q324.6724,773.8038 324.9068,774.0694 Q325.1412,774.3194 325.1412,774.9288 L325.1412,776.8975 Q325.1412,777.4444 325.0162,777.6319 Q324.7506,778.0225 324.2974,778.0225 Q323.8287,778.0225 323.5631,777.6163 Q323.4381,777.4288 323.4381,776.7569 L321.9537,776.7569 Z " fill="#000000"/><text fill="#000000" font-family="sans-serif" font-size="14" lengthAdjust="spacing" textLength="28" x="339.9943" y="781.6885">DBE</text><line style="stroke:#181818;stroke-width:0.5;" x1="296.0443" x2="383.0443" y1="791.96" y2="791.96"/><text fill="#000000" font-family="sans-serif" font-size="14" lengthAdjust="spacing" textLength="46" x="301.0443" y="810.4932">MySQL</text><text fill="#000000" font-family="sans-serif" font-size="14" lengthAdjust="spacing" textLength="43" x="301.0443" y="828.1026">SQLite</text><text fill="#000000" font-family="sans-serif" font-size="14" lengthAdjust="spacing" textLength="77" x="301.0443" y="845.712">PostgreSQL</text><line style="stroke:#181818;stroke-width:0.5;" x1="296.0443" x2="383.0443" y1="852.7881" y2="852.7881"/></g><!--MD5=[a33c3fb28c09da4e5111d6677a3a34ed]
class PDO--><g id="elem_PDO"><rect codeLine="38" fill="#F1F1F1" height="100.8281" id="PDO" rx="2.5" ry="2.5" style="stroke:#181818;stroke-width:0.5;" width="480" x="467.5443" y="554.96"/><ellipse cx="688.2943" cy="570.96" fill="#ADD1B2" rx="11" ry="11" style="stroke:#181818;stroke-width:1.0;"/><path d="M691.0599,566.835 Q691.2162,566.6163 691.4037,566.5069 Q691.5912,566.3975 691.8099,566.3975 Q692.1849,566.3975 692.4193,566.6631 Q692.6537,566.9131 692.6537,567.5225 L692.6537,568.9756 Q692.6537,569.585 692.4193,569.8506 Q692.1849,570.1163 691.8099,570.1163 Q691.4662,570.1163 691.2631,569.9131 Q691.0599,569.7256 690.9506,569.21 Q690.9037,568.8506 690.7162,568.6631 Q690.3881,568.2881 689.7787,568.0694 Q689.1693,567.8506 688.5443,567.8506 Q687.7787,567.8506 687.1381,568.1788 Q686.5131,568.5069 686.0131,569.2569 Q685.5287,570.0069 685.5287,571.0381 L685.5287,572.1319 Q685.5287,573.3663 686.4193,574.1944 Q687.3099,575.0069 688.9037,575.0069 Q689.8412,575.0069 690.4974,574.7569 Q690.8881,574.6006 691.3099,574.1631 Q691.5756,573.8975 691.7162,573.8194 Q691.8724,573.7413 692.0756,573.7413 Q692.4037,573.7413 692.6537,574.0069 Q692.9193,574.2569 692.9193,574.6006 Q692.9193,574.9444 692.5756,575.3506 Q692.0756,575.9288 691.2787,576.2569 Q690.2006,576.71 688.9037,576.71 Q687.3881,576.71 686.1849,576.085 Q685.2006,575.585 684.5131,574.5225 Q683.8256,573.4444 683.8256,572.1631 L683.8256,571.0069 Q683.8256,569.6788 684.4349,568.5381 Q685.0599,567.3819 686.1537,566.7725 Q687.2474,566.1475 688.4818,566.1475 Q689.2162,566.1475 689.8568,566.3194 Q690.5131,566.4756 691.0599,566.835 Z " fill="#000000"/><text fill="#000000" font-family="sans-serif" font-size="14" lengthAdjust="spacing" textLength="30" x="708.7943" y="576.6885">PDO</text><line style="stroke:#181818;stroke-width:0.5;" x1="468.5443" x2="946.5443" y1="586.96" y2="586.96"/><line style="stroke:#181818;stroke-width:0.5;" x1="468.5443" x2="946.5443" y1="594.96" y2="594.96"/><ellipse cx="478.5443" cy="605.96" fill="#84BE84" rx="3" ry="3" style="stroke:#038048;stroke-width:1.0;"/><text fill="#000000" font-family="sans-serif" font-size="14" lengthAdjust="spacing" textLength="98" x="487.5443" y="613.4932">prepare() : stmt</text><ellipse cx="478.5443" cy="623.5694" fill="#84BE84" rx="3" ry="3" style="stroke:#038048;stroke-width:1.0;"/><text fill="#000000" font-family="sans-serif" font-size="14" lengthAdjust="spacing" textLength="97" x="487.5443" y="631.1026">execute() : stmt</text><ellipse cx="478.5443" cy="641.1788" fill="#84BE84" rx="3" ry="3" style="stroke:#038048;stroke-width:1.0;"/><text fill="#000000" font-family="sans-serif" font-size="14" lengthAdjust="spacing" textLength="454" x="487.5443" y="648.712">fetchAll(PDO::FETCH_CLASS, ImageModel::class) : array&lt;ImageModel&gt;</text></g><!--MD5=[374cffc4387e99f2ee163738ffdce237]
class ImageView--><g id="elem_ImageView"><rect codeLine="58" fill="#F1F1F1" height="48" id="ImageView" rx="2.5" ry="2.5" style="stroke:#181818;stroke-width:0.5;" width="99" x="51.0443" y="144.96"/><ellipse cx="66.0443" cy="160.96" fill="#ADD1B2" rx="11" ry="11" style="stroke:#181818;stroke-width:1.0;"/><path d="M68.8099,156.835 Q68.9662,156.6163 69.1537,156.5069 Q69.3412,156.3975 69.5599,156.3975 Q69.9349,156.3975 70.1693,156.6631 Q70.4037,156.9131 70.4037,157.5225 L70.4037,158.9756 Q70.4037,159.585 70.1693,159.8506 Q69.9349,160.1163 69.5599,160.1163 Q69.2162,160.1163 69.0131,159.9131 Q68.8099,159.7256 68.7006,159.21 Q68.6537,158.8506 68.4662,158.6631 Q68.1381,158.2881 67.5287,158.0694 Q66.9193,157.8506 66.2943,157.8506 Q65.5287,157.8506 64.8881,158.1788 Q64.2631,158.5069 63.7631,159.2569 Q63.2787,160.0069 63.2787,161.0381 L63.2787,162.1319 Q63.2787,163.3663 64.1693,164.1944 Q65.0599,165.0069 66.6537,165.0069 Q67.5912,165.0069 68.2474,164.7569 Q68.6381,164.6006 69.0599,164.1631 Q69.3256,163.8975 69.4662,163.8194 Q69.6224,163.7413 69.8256,163.7413 Q70.1537,163.7413 70.4037,164.0069 Q70.6693,164.2569 70.6693,164.6006 Q70.6693,164.9444 70.3256,165.3506 Q69.8256,165.9288 69.0287,166.2569 Q67.9506,166.71 66.6537,166.71 Q65.1381,166.71 63.9349,166.085 Q62.9506,165.585 62.2631,164.5225 Q61.5756,163.4444 61.5756,162.1631 L61.5756,161.0069 Q61.5756,159.6788 62.1849,158.5381 Q62.8099,157.3819 63.9037,156.7725 Q64.9974,156.1475 66.2318,156.1475 Q66.9662,156.1475 67.6068,156.3194 Q68.2631,156.4756 68.8099,156.835 Z " fill="#000000"/><text fill="#000000" font-family="sans-serif" font-size="14" lengthAdjust="spacing" textLength="67" x="80.0443" y="166.6885">ImageView</text><line style="stroke:#181818;stroke-width:0.5;" x1="52.0443" x2="149.0443" y1="176.96" y2="176.96"/><line style="stroke:#181818;stroke-width:0.5;" x1="52.0443" x2="149.0443" y1="184.96" y2="184.96"/></g><!--MD5=[5ea07da524a2cb72fb5d0a9b1b65e687]
reverse link Image to ImageModel--><g id="link_Image_ImageModel"><path d="M1150.5443,213.16 C1150.5443,227.76 1150.5443,244.68 1150.5443,261.65 " fill="none" id="Image-backto-ImageModel" style="stroke:#181818;stroke-width:1.0;stroke-dasharray:7.0,7.0;"/><polygon fill="none" points="1143.5443,213.08,1150.5443,193.08,1157.5443,213.08,1143.5443,213.08" style="stroke:#181818;stroke-width:1.0;"/></g><!--MD5=[80e135b7077415eb864a750b145e92cc]
reverse link Controller to ImageController--><g id="link_Controller_ImageController"><path d="M541.5443,222.32 C541.5443,248.47 541.5443,279.95 541.5443,305.73 " fill="none" id="Controller-backto-ImageController" style="stroke:#181818;stroke-width:1.0;stroke-dasharray:7.0,7.0;"/><polygon fill="none" points="534.5443,222.27,541.5443,202.27,548.5443,222.27,534.5443,222.27" style="stroke:#181818;stroke-width:1.0;"/></g><!--MD5=[98ab322c9ff8af37607f5dfaa96e52b6]
reverse link ImageController to PDO--><g id="link_ImageController_PDO"><path codeLine="51" d="M582.2843,418.08 C610.5443,460.13 647.7143,515.43 674.2043,554.85 " fill="none" id="ImageController-backto-PDO" style="stroke:#181818;stroke-width:1.0;"/><polygon fill="#181818" points="574.9343,407.15,574.9585,414.3611,581.6242,417.1122,581.6,409.9012,574.9343,407.15" style="stroke:#181818;stroke-width:1.0;"/><text fill="#000000" font-family="sans-serif" font-size="13" lengthAdjust="spacing" textLength="7" x="571.764" y="428.1983">1</text><text fill="#000000" font-family="sans-serif" font-size="13" lengthAdjust="spacing" textLength="7" x="662.0237" y="544.1399">1</text></g><!--MD5=[2aae9dc6a0e5d10c8448a99de8dd58c5]
reverse link DB to DBE--><g id="link_DB_DBE"><path codeLine="52" d="M339.5443,713.28 C339.5443,729.53 339.5443,745.6 339.5443,759.81 " fill="none" id="DB-backto-DBE" style="stroke:#181818;stroke-width:1.0;"/><polygon fill="#181818" points="339.5443,700.24,335.5443,706.24,339.5443,712.24,343.5443,706.24,339.5443,700.24" style="stroke:#181818;stroke-width:1.0;"/><text fill="#000000" font-family="sans-serif" font-size="13" lengthAdjust="spacing" textLength="7" x="332.2873" y="721.3005">1</text><text fill="#000000" font-family="sans-serif" font-size="13" lengthAdjust="spacing" textLength="7" x="332.0521" y="749.0943">1</text></g><!--MD5=[d7acf8f55b96b57f3582572b7f562448]
reverse link ImageController to DB--><g id="link_ImageController_DB"><path codeLine="53" d="M492.3843,417.58 C469.4643,445.6 441.6543,479.6 416.0743,510.88 " fill="none" id="ImageController-backto-DB" style="stroke:#181818;stroke-width:1.0;"/><polygon fill="#181818" points="500.9143,407.15,494.0205,409.2656,493.3219,416.4428,500.2157,414.3272,500.9143,407.15" style="stroke:#181818;stroke-width:1.0;"/><text fill="#000000" font-family="sans-serif" font-size="13" lengthAdjust="spacing" textLength="7" x="488.2602" y="428.1983">1</text><text fill="#000000" font-family="sans-serif" font-size="13" lengthAdjust="spacing" textLength="7" x="414.8939" y="500.2198">1</text></g><!--MD5=[08ae370d1500847368467a12a0b664d4]
link View to C--><g id="link_View_C"><path d="M18.0223,100.634 C18.1112,100.2199 18.2019,99.806 18.2944,99.3923 C18.6645,97.7375 19.064,96.0862 19.4951,94.4426 C21.2192,87.8683 23.4467,81.4178 26.3051,75.3631 C32.0218,63.2538 40.2618,52.7275 52.0443,45.96 C89.4243,24.49 111.5443,24.69 149.0443,45.96 C175.4393,60.935 193.3693,89.5725 204.9081,115.4488 C207.7928,121.9178 210.278,128.2143 212.3962,134.0816 C212.9257,135.5484 213.4323,136.9884 213.9165,138.3976 C214.0375,138.7499 214.1572,139.1002 214.2754,139.4486 C214.3345,139.6228 214.3933,139.7965 214.4517,139.9696 " fill="none" id="View-C" style="stroke:#181818;stroke-width:1.0;"/><polygon fill="#181818" points="214.4517,139.9696,215.3649,130.1632,212.8534,135.232,207.7846,132.7206,214.4517,139.9696" style="stroke:#181818;stroke-width:1.0;"/><polygon fill="#181818" points="18.0223,100.634,23.8219,92.6737,19.0715,95.7453,16,90.995,18.0223,100.634" style="stroke:#181818;stroke-width:1.0;"/></g><!--MD5=[34d50b25994246c791d610ec1f1f7b93]
link C to Model--><g id="link_C_Model"><path d="M219.6157,91.7165 C219.7737,90.8989 219.9403,90.084 220.1159,89.2722 C220.4671,87.6486 220.8541,86.0376 221.2796,84.4433 C222.1305,81.2549 223.1348,78.1337 224.3126,75.1142 C229.0237,63.0363 236.5093,52.585 248.0443,45.96 C317.6043,6 900.2743,6.37 970.0443,45.96 C996.4393,60.935 1014.3693,89.5725 1025.9081,115.4488 C1028.7928,121.9178 1031.278,128.2143 1033.3962,134.0816 C1033.9257,135.5484 1034.4323,136.9884 1034.9165,138.3976 C1035.0375,138.7499 1035.1572,139.1002 1035.2754,139.4486 C1035.3345,139.6228 1035.3933,139.7965 1035.4517,139.9696 " fill="none" id="C-Model" style="stroke:#181818;stroke-width:1.0;"/><polygon fill="#181818" points="1035.4517,139.9696,1036.3649,130.1632,1033.8534,135.232,1028.7846,132.7206,1035.4517,139.9696" style="stroke:#181818;stroke-width:1.0;"/><polygon fill="#181818" points="219.6157,91.7165,225.2505,83.6387,220.5643,86.8073,217.3958,82.1211,219.6157,91.7165" style="stroke:#181818;stroke-width:1.0;"/></g><!--MD5=[014480119e58ba213f02157b6203230e]
@startuml
rectangle Model{
class ImageModel implements Image {
    - id : int 
    - filename : string
    - title : string
    - description : string
    + int getID()
    + string getFileName()
    + string getTitle()
    + string getDescription()
}
}

rectangle "Controller" as C {
class DB {
    - iniPath = "../DB/config.ini"
    - dbe : DBE
    - dns : string
    - user : string 
    - pass : string
    + getDNS() : string
    + getUser() : string
    + getPass() : string
}

interface Controller {
    + fetchAll() : array <Object> | null
}

class ImageController implements Controller{
    - pdo : PDO
    - db : DB
    + fetchAll() :  array <ImageModel> | null

}

package "PHP 8.1" <<Folder>> {
    class PDO {
        + prepare() : stmt
        + execute() : stmt
        + fetchAll(PDO::FETCH_CLASS, ImageModel::class) : array<ImageModel>
    }
}

enum DBE{
    MySQL
    SQLite
    PostgreSQL
}

ImageController "1" *- - "1" PDO
DB "1" *- - "1" DBE
ImageController "1" *- - "1" DB
} 


rectangle View {
    class ImageView {

    }
}

View <-> C
C <-> Model 
@enduml

PlantUML version 1.2022.5(Sat Apr 30 12:55:52 CEST 2022)
(GPL source distribution)
Java Runtime: Java(TM) SE Runtime Environment
JVM: Java HotSpot(TM) 64-Bit Server VM
Default Encoding: UTF-8
Language: de
Country: DE
--></g></svg>