<?xml version="1.0" encoding="UTF-8" standalone="no"?><svg xmlns="http://www.w3.org/2000/svg" xmlns:xlink="http://www.w3.org/1999/xlink" contentStyleType="text/css" height="546px" preserveAspectRatio="none" style="width:1348px;height:546px;background:#FFFFFF;" version="1.1" viewBox="0 0 1348 546" width="1348px" zoomAndPan="magnify"><defs/><g><line style="stroke:#181818;stroke-width:0.5;stroke-dasharray:5.0,5.0;" x1="41" x2="41" y1="82.6094" y2="464.4766"/><line style="stroke:#181818;stroke-width:0.5;stroke-dasharray:5.0,5.0;" x1="314.5" x2="314.5" y1="82.6094" y2="464.4766"/><line style="stroke:#181818;stroke-width:0.5;stroke-dasharray:5.0,5.0;" x1="381.5" x2="381.5" y1="82.6094" y2="464.4766"/><line style="stroke:#181818;stroke-width:0.5;stroke-dasharray:5.0,5.0;" x1="460.5" x2="460.5" y1="82.6094" y2="464.4766"/><line style="stroke:#181818;stroke-width:0.5;stroke-dasharray:5.0,5.0;" x1="586" x2="586" y1="82.6094" y2="464.4766"/><line style="stroke:#181818;stroke-width:0.5;stroke-dasharray:5.0,5.0;" x1="750" x2="750" y1="82.6094" y2="464.4766"/><line style="stroke:#181818;stroke-width:0.5;stroke-dasharray:5.0,5.0;" x1="952" x2="952" y1="82.6094" y2="464.4766"/><line style="stroke:#181818;stroke-width:0.5;stroke-dasharray:5.0,5.0;" x1="1020" x2="1020" y1="82.6094" y2="464.4766"/><line style="stroke:#181818;stroke-width:0.5;stroke-dasharray:5.0,5.0;" x1="1243.5" x2="1243.5" y1="82.6094" y2="464.4766"/><line style="stroke:#181818;stroke-width:0.5;stroke-dasharray:5.0,5.0;" x1="1310.5" x2="1310.5" y1="82.6094" y2="464.4766"/><text fill="#000000" font-family="sans-serif" font-size="14" lengthAdjust="spacing" textLength="66" x="5" y="79.5332">Web_User</text><ellipse cx="41" cy="13.5" fill="#E2E2F0" rx="8" ry="8" style="stroke:#181818;stroke-width:0.5;"/><path d="M41,21.5 L41,48.5 M28,29.5 L54,29.5 M41,48.5 L28,63.5 M41,48.5 L54,63.5 " fill="none" style="stroke:#181818;stroke-width:0.5;"/><text fill="#000000" font-family="sans-serif" font-size="14" lengthAdjust="spacing" textLength="66" x="5" y="478.0098">Web_User</text><ellipse cx="41" cy="489.5859" fill="#E2E2F0" rx="8" ry="8" style="stroke:#181818;stroke-width:0.5;"/><path d="M41,497.5859 L41,524.5859 M28,505.5859 L54,505.5859 M41,524.5859 L28,539.5859 M41,524.5859 L54,539.5859 " fill="none" style="stroke:#181818;stroke-width:0.5;"/><text fill="#000000" font-family="sans-serif" font-size="14" lengthAdjust="spacing" textLength="33" x="295.5" y="79.5332">Index</text><path d="M294.5,37 L294.5,61 M294.5,49 L311.5,49 " fill="none" style="stroke:#181818;stroke-width:0.5;"/><ellipse cx="323.5" cy="49" fill="#E2E2F0" rx="12" ry="12" style="stroke:#181818;stroke-width:0.5;"/><text fill="#000000" font-family="sans-serif" font-size="14" lengthAdjust="spacing" textLength="33" x="295.5" y="478.0098">Index</text><path d="M294.5,485.0859 L294.5,509.0859 M294.5,497.0859 L311.5,497.0859 " fill="none" style="stroke:#181818;stroke-width:0.5;"/><ellipse cx="323.5" cy="497.0859" fill="#E2E2F0" rx="12" ry="12" style="stroke:#181818;stroke-width:0.5;"/><text fill="#000000" font-family="sans-serif" font-size="14" lengthAdjust="spacing" textLength="59" x="349.5" y="79.5332">MainView</text><path d="M361.5,37 L361.5,61 M361.5,49 L378.5,49 " fill="none" style="stroke:#181818;stroke-width:0.5;"/><ellipse cx="390.5" cy="49" fill="#E2E2F0" rx="12" ry="12" style="stroke:#181818;stroke-width:0.5;"/><text fill="#000000" font-family="sans-serif" font-size="14" lengthAdjust="spacing" textLength="59" x="349.5" y="478.0098">MainView</text><path d="M361.5,485.0859 L361.5,509.0859 M361.5,497.0859 L378.5,497.0859 " fill="none" style="stroke:#181818;stroke-width:0.5;"/><ellipse cx="390.5" cy="497.0859" fill="#E2E2F0" rx="12" ry="12" style="stroke:#181818;stroke-width:0.5;"/><text fill="#000000" font-family="sans-serif" font-size="14" lengthAdjust="spacing" textLength="67" x="424.5" y="79.5332">ImageView</text><path d="M440.5,37 L440.5,61 M440.5,49 L457.5,49 " fill="none" style="stroke:#181818;stroke-width:0.5;"/><ellipse cx="469.5" cy="49" fill="#E2E2F0" rx="12" ry="12" style="stroke:#181818;stroke-width:0.5;"/><text fill="#000000" font-family="sans-serif" font-size="14" lengthAdjust="spacing" textLength="67" x="424.5" y="478.0098">ImageView</text><path d="M440.5,485.0859 L440.5,509.0859 M440.5,497.0859 L457.5,497.0859 " fill="none" style="stroke:#181818;stroke-width:0.5;"/><ellipse cx="469.5" cy="497.0859" fill="#E2E2F0" rx="12" ry="12" style="stroke:#181818;stroke-width:0.5;"/><text fill="#000000" font-family="sans-serif" font-size="14" lengthAdjust="spacing" textLength="100" x="533" y="79.5332">ImageController</text><ellipse cx="586" cy="49" fill="#E2E2F0" rx="12" ry="12" style="stroke:#181818;stroke-width:0.5;"/><polygon fill="#181818" points="582,37,588,32,586,37,588,42,582,37" style="stroke:#181818;stroke-width:1.0;"/><text fill="#000000" font-family="sans-serif" font-size="14" lengthAdjust="spacing" textLength="100" x="533" y="478.0098">ImageController</text><ellipse cx="586" cy="497.0859" fill="#E2E2F0" rx="12" ry="12" style="stroke:#181818;stroke-width:0.5;"/><polygon fill="#181818" points="582,485.0859,588,480.0859,586,485.0859,588,490.0859,582,485.0859" style="stroke:#181818;stroke-width:1.0;"/><text fill="#000000" font-family="sans-serif" font-size="14" lengthAdjust="spacing" textLength="19" x="737.5" y="79.5332">DB</text><ellipse cx="750" cy="49" fill="#E2E2F0" rx="12" ry="12" style="stroke:#181818;stroke-width:0.5;"/><line style="stroke:#181818;stroke-width:0.5;" x1="738" x2="762" y1="63" y2="63"/><text fill="#000000" font-family="sans-serif" font-size="14" lengthAdjust="spacing" textLength="19" x="737.5" y="478.0098">DB</text><ellipse cx="750" cy="497.0859" fill="#E2E2F0" rx="12" ry="12" style="stroke:#181818;stroke-width:0.5;"/><line style="stroke:#181818;stroke-width:0.5;" x1="738" x2="762" y1="511.0859" y2="511.0859"/><text fill="#000000" font-family="sans-serif" font-size="14" lengthAdjust="spacing" textLength="28" x="935" y="79.5332">DBE</text><ellipse cx="952" cy="49" fill="#E2E2F0" rx="12" ry="12" style="stroke:#181818;stroke-width:0.5;"/><line style="stroke:#181818;stroke-width:0.5;" x1="940" x2="964" y1="63" y2="63"/><text fill="#000000" font-family="sans-serif" font-size="14" lengthAdjust="spacing" textLength="28" x="935" y="478.0098">DBE</text><ellipse cx="952" cy="497.0859" fill="#E2E2F0" rx="12" ry="12" style="stroke:#181818;stroke-width:0.5;"/><line style="stroke:#181818;stroke-width:0.5;" x1="940" x2="964" y1="511.0859" y2="511.0859"/><text fill="#000000" font-family="sans-serif" font-size="14" lengthAdjust="spacing" textLength="76" x="979" y="79.5332">ImageModel</text><ellipse cx="1020" cy="49" fill="#E2E2F0" rx="12" ry="12" style="stroke:#181818;stroke-width:0.5;"/><line style="stroke:#181818;stroke-width:0.5;" x1="1008" x2="1032" y1="63" y2="63"/><text fill="#000000" font-family="sans-serif" font-size="14" lengthAdjust="spacing" textLength="76" x="979" y="478.0098">ImageModel</text><ellipse cx="1020" cy="497.0859" fill="#E2E2F0" rx="12" ry="12" style="stroke:#181818;stroke-width:0.5;"/><line style="stroke:#181818;stroke-width:0.5;" x1="1008" x2="1032" y1="511.0859" y2="511.0859"/><text fill="#000000" font-family="sans-serif" font-size="14" lengthAdjust="spacing" textLength="45" x="1218.5" y="79.5332">images</text><path d="M1226,29 C1226,19 1244,19 1244,19 C1244,19 1262,19 1262,29 L1262,55 C1262,65 1244,65 1244,65 C1244,65 1226,65 1226,55 L1226,29 " fill="#E2E2F0" style="stroke:#181818;stroke-width:1.5;"/><path d="M1226,29 C1226,39 1244,39 1244,39 C1244,39 1262,39 1262,29 " fill="none" style="stroke:#181818;stroke-width:1.5;"/><text fill="#000000" font-family="sans-serif" font-size="14" lengthAdjust="spacing" textLength="45" x="1218.5" y="478.0098">images</text><path d="M1226,491.0859 C1226,481.0859 1244,481.0859 1244,481.0859 C1244,481.0859 1262,481.0859 1262,491.0859 L1262,517.0859 C1262,527.0859 1244,527.0859 1244,527.0859 C1244,527.0859 1226,527.0859 1226,517.0859 L1226,491.0859 " fill="#E2E2F0" style="stroke:#181818;stroke-width:1.5;"/><path d="M1226,491.0859 C1226,501.0859 1244,501.0859 1244,501.0859 C1244,501.0859 1262,501.0859 1262,491.0859 " fill="none" style="stroke:#181818;stroke-width:1.5;"/><rect fill="#E2E2F0" height="31.6094" style="stroke:#181818;stroke-width:0.5;" width="59" x="1283.5" y="46"/><rect fill="#E2E2F0" height="31.6094" style="stroke:#181818;stroke-width:0.5;" width="59" x="1279.5" y="50"/><text fill="#000000" font-family="sans-serif" font-size="14" lengthAdjust="spacing" textLength="45" x="1286.5" y="71.5332">Images</text><rect fill="#E2E2F0" height="31.6094" style="stroke:#181818;stroke-width:0.5;" width="59" x="1283.5" y="463.4766"/><rect fill="#E2E2F0" height="31.6094" style="stroke:#181818;stroke-width:0.5;" width="59" x="1279.5" y="467.4766"/><text fill="#000000" font-family="sans-serif" font-size="14" lengthAdjust="spacing" textLength="45" x="1286.5" y="489.0098">Images</text><polygon fill="#181818" points="303,110.9609,313,114.9609,303,118.9609,307,114.9609" style="stroke:#181818;stroke-width:1.0;"/><line style="stroke:#181818;stroke-width:1.0;" x1="41" x2="309" y1="114.9609" y2="114.9609"/><text fill="#000000" font-family="sans-serif" font-size="13" lengthAdjust="spacing" textLength="169" x="48" y="110.1045">1:Need to see some Pictures</text><polygon fill="#181818" points="574,141.3125,584,145.3125,574,149.3125,578,145.3125" style="stroke:#181818;stroke-width:1.0;"/><line style="stroke:#181818;stroke-width:1.0;stroke-dasharray:2.0,2.0;" x1="315" x2="580" y1="145.3125" y2="145.3125"/><text fill="#000000" font-family="sans-serif" font-size="13" lengthAdjust="spacing" textLength="247" x="322" y="140.4561">1:1 new ImageController( new DB ( DBE ) )</text><polygon fill="#181818" points="738,171.6641,748,175.6641,738,179.6641,742,175.6641" style="stroke:#181818;stroke-width:1.0;"/><line style="stroke:#181818;stroke-width:1.0;stroke-dasharray:2.0,2.0;" x1="586" x2="744" y1="175.6641" y2="175.6641"/><text fill="#000000" font-family="sans-serif" font-size="13" lengthAdjust="spacing" textLength="140" x="593" y="170.8076">new DB ( BDE::MySQL)</text><polygon fill="#181818" points="761,202.0156,751,206.0156,761,210.0156,757,206.0156" style="stroke:#181818;stroke-width:1.0;"/><polygon fill="#181818" points="940,202.0156,950,206.0156,940,210.0156,944,206.0156" style="stroke:#181818;stroke-width:1.0;"/><line style="stroke:#181818;stroke-width:1.0;stroke-dasharray:2.0,2.0;" x1="755" x2="946" y1="206.0156" y2="206.0156"/><text fill="#000000" font-family="sans-serif" font-size="13" lengthAdjust="spacing" textLength="178" x="767" y="201.1592">getDNS(); getUser(); getPass()</text><polygon fill="#181818" points="1232,232.3672,1242,236.3672,1232,240.3672,1236,236.3672" style="stroke:#181818;stroke-width:1.0;"/><line style="stroke:#181818;stroke-width:1.0;" x1="586" x2="1238" y1="236.3672" y2="236.3672"/><text fill="#000000" font-family="sans-serif" font-size="13" lengthAdjust="spacing" textLength="634" x="593" y="231.5107">ImageController-&gt;fetchAll() : $stmt = $this-&gt;pdo-&gt;prepare(SELECT id,filename,title,description FROM images)</text><polygon fill="#181818" points="1255,246.3672,1245,250.3672,1255,254.3672,1251,250.3672" style="stroke:#181818;stroke-width:1.0;"/><polygon fill="#181818" points="1299,246.3672,1309,250.3672,1299,254.3672,1303,250.3672" style="stroke:#181818;stroke-width:1.0;"/><line style="stroke:#181818;stroke-width:1.0;stroke-dasharray:2.0,2.0;" x1="1249" x2="1305" y1="250.3672" y2="250.3672"/><polygon fill="#181818" points="597,276.7188,587,280.7188,597,284.7188,593,280.7188" style="stroke:#181818;stroke-width:1.0;"/><polygon fill="#181818" points="1232,276.7188,1242,280.7188,1232,284.7188,1236,280.7188" style="stroke:#181818;stroke-width:1.0;"/><line style="stroke:#181818;stroke-width:1.0;" x1="591" x2="1238" y1="280.7188" y2="280.7188"/><text fill="#000000" font-family="sans-serif" font-size="13" lengthAdjust="spacing" textLength="272" x="603" y="275.8623">ImageController-&gt;fetchAll() :  $stmt -&gt;execute()</text><polygon fill="#181818" points="597,307.0703,587,311.0703,597,315.0703,593,311.0703" style="stroke:#181818;stroke-width:1.0;"/><polygon fill="#181818" points="1008,307.0703,1018,311.0703,1008,315.0703,1012,311.0703" style="stroke:#181818;stroke-width:1.0;"/><line style="stroke:#181818;stroke-width:1.0;stroke-dasharray:2.0,2.0;" x1="591" x2="1014" y1="311.0703" y2="311.0703"/><text fill="#000000" font-family="sans-serif" font-size="13" lengthAdjust="spacing" textLength="403" x="603" y="306.2139">$results = $stmt-&gt;fetchAll(PDO::FETCH_CLASS, ImageModel::class)</text><polygon fill="#181818" points="326,337.4219,316,341.4219,326,345.4219,322,341.4219" style="stroke:#181818;stroke-width:1.0;"/><line style="stroke:#181818;stroke-width:1.0;" x1="320" x2="585" y1="341.4219" y2="341.4219"/><text fill="#000000" font-family="sans-serif" font-size="13" lengthAdjust="spacing" textLength="122" x="332" y="336.5654">1:0|1|* $images array</text><polygon fill="#181818" points="449,367.7734,459,371.7734,449,375.7734,453,371.7734" style="stroke:#181818;stroke-width:1.0;"/><line style="stroke:#181818;stroke-width:1.0;" x1="315" x2="455" y1="371.7734" y2="371.7734"/><text fill="#000000" font-family="sans-serif" font-size="13" lengthAdjust="spacing" textLength="48" x="322" y="366.917">render ()</text><polygon fill="#181818" points="393,398.125,383,402.125,393,406.125,389,402.125" style="stroke:#181818;stroke-width:1.0;"/><line style="stroke:#181818;stroke-width:1.0;" x1="387" x2="460" y1="402.125" y2="402.125"/><text fill="#000000" font-family="sans-serif" font-size="13" lengthAdjust="spacing" textLength="47" x="399" y="397.2686">+ layout</text><polygon fill="#181818" points="326,412.125,316,416.125,326,420.125,322,416.125" style="stroke:#181818;stroke-width:1.0;"/><line style="stroke:#181818;stroke-width:1.0;" x1="320" x2="381" y1="416.125" y2="416.125"/><polygon fill="#181818" points="52,442.4766,42,446.4766,52,450.4766,48,446.4766" style="stroke:#181818;stroke-width:1.0;"/><line style="stroke:#181818;stroke-width:1.0;" x1="46" x2="314" y1="446.4766" y2="446.4766"/><text fill="#000000" font-family="sans-serif" font-size="13" lengthAdjust="spacing" textLength="250" x="58" y="441.6201">he/she dont know how many work it was ;-)</text><!--MD5=[2d00d50bfa374ed6ab2e6abcc2e2b74a]
@startuml
actor Web_User
boundary Index
boundary MainView
boundary ImageView
control ImageController
entity DB
entity DBE
entity ImageModel
database images
collections Images
Web_User -> Index: 1:Need to see some Pictures

Index - ->ImageController: 1:1 new ImageController( new DB ( DBE ) ) 

ImageController - -> DB : new DB ( BDE::MySQL)

DBE <- -> DB: getDNS(); getUser(); getPass()

ImageController -> images: ImageController->fetchAll() : $stmt = $this->pdo->prepare(SELECT id,filename,title,description FROM images)

images <- ->Images:

images <-> ImageController: ImageController->fetchAll() :  $stmt ->execute() 

ImageController <- -> ImageModel : $results = $stmt->fetchAll(PDO::FETCH_CLASS, ImageModel::class)

ImageController -> Index : 1:0|1|* $images array

Index -> ImageView: render ()

ImageView -> MainView: + layout

MainView -> Index

Index -> Web_User: he/she dont know how many work it was ;-)
@enduml

PlantUML version 1.2022.5(Sat Apr 30 12:55:52 CEST 2022)
(GPL source distribution)
Java Runtime: Java(TM) SE Runtime Environment
JVM: Java HotSpot(TM) 64-Bit Server VM
Default Encoding: UTF-8
Language: de
Country: DE
--></g></svg>