<?xml version="1.0" encoding="UTF-8" standalone="no"?><svg xmlns="http://www.w3.org/2000/svg" xmlns:xlink="http://www.w3.org/1999/xlink" contentStyleType="text/css" height="546px" preserveAspectRatio="none" style="width:1346px;height:546px;background:#FFFFFF;" version="1.1" viewBox="0 0 1346 546" width="1346px" zoomAndPan="magnify"><defs/><g><line style="stroke:#181818;stroke-width:0.5;stroke-dasharray:5.0,5.0;" x1="39" x2="39" y1="82.6094" y2="464.4766"/><line style="stroke:#181818;stroke-width:0.5;stroke-dasharray:5.0,5.0;" x1="312.5" x2="312.5" y1="82.6094" y2="464.4766"/><line style="stroke:#181818;stroke-width:0.5;stroke-dasharray:5.0,5.0;" x1="380.5" x2="380.5" y1="82.6094" y2="464.4766"/><line style="stroke:#181818;stroke-width:0.5;stroke-dasharray:5.0,5.0;" x1="462.5" x2="462.5" y1="82.6094" y2="464.4766"/><line style="stroke:#181818;stroke-width:0.5;stroke-dasharray:5.0,5.0;" x1="584" x2="584" y1="82.6094" y2="464.4766"/><line style="stroke:#181818;stroke-width:0.5;stroke-dasharray:5.0,5.0;" x1="748" x2="748" y1="82.6094" y2="464.4766"/><line style="stroke:#181818;stroke-width:0.5;stroke-dasharray:5.0,5.0;" x1="950" x2="950" y1="82.6094" y2="464.4766"/><line style="stroke:#181818;stroke-width:0.5;stroke-dasharray:5.0,5.0;" x1="1018" x2="1018" y1="82.6094" y2="464.4766"/><line style="stroke:#181818;stroke-width:0.5;stroke-dasharray:5.0,5.0;" x1="1241.5" x2="1241.5" y1="82.6094" y2="464.4766"/><line style="stroke:#181818;stroke-width:0.5;stroke-dasharray:5.0,5.0;" x1="1308.5" x2="1308.5" y1="82.6094" y2="464.4766"/><text fill="#000000" font-family="sans-serif" font-size="14" lengthAdjust="spacing" textLength="62" x="5" y="79.5332">Web User</text><ellipse cx="39" cy="13.5" fill="#E2E2F0" rx="8" ry="8" style="stroke:#181818;stroke-width:0.5;"/><path d="M39,21.5 L39,48.5 M26,29.5 L52,29.5 M39,48.5 L26,63.5 M39,48.5 L52,63.5 " fill="none" style="stroke:#181818;stroke-width:0.5;"/><text fill="#000000" font-family="sans-serif" font-size="14" lengthAdjust="spacing" textLength="62" x="5" y="478.0098">Web User</text><ellipse cx="39" cy="489.5859" fill="#E2E2F0" rx="8" ry="8" style="stroke:#181818;stroke-width:0.5;"/><path d="M39,497.5859 L39,524.5859 M26,505.5859 L52,505.5859 M39,524.5859 L26,539.5859 M39,524.5859 L52,539.5859 " fill="none" style="stroke:#181818;stroke-width:0.5;"/><text fill="#000000" font-family="sans-serif" font-size="14" lengthAdjust="spacing" textLength="33" x="293.5" y="79.5332">index</text><path d="M292.5,37 L292.5,61 M292.5,49 L309.5,49 " fill="none" style="stroke:#181818;stroke-width:0.5;"/><ellipse cx="321.5" cy="49" fill="#E2E2F0" rx="12" ry="12" style="stroke:#181818;stroke-width:0.5;"/><text fill="#000000" font-family="sans-serif" font-size="14" lengthAdjust="spacing" textLength="33" x="293.5" y="478.0098">index</text><path d="M292.5,485.0859 L292.5,509.0859 M292.5,497.0859 L309.5,497.0859 " fill="none" style="stroke:#181818;stroke-width:0.5;"/><ellipse cx="321.5" cy="497.0859" fill="#E2E2F0" rx="12" ry="12" style="stroke:#181818;stroke-width:0.5;"/><text fill="#000000" font-family="sans-serif" font-size="14" lengthAdjust="spacing" textLength="61" x="347.5" y="79.5332">Main.view</text><path d="M360.5,37 L360.5,61 M360.5,49 L377.5,49 " fill="none" style="stroke:#181818;stroke-width:0.5;"/><ellipse cx="389.5" cy="49" fill="#E2E2F0" rx="12" ry="12" style="stroke:#181818;stroke-width:0.5;"/><text fill="#000000" font-family="sans-serif" font-size="14" lengthAdjust="spacing" textLength="61" x="347.5" y="478.0098">Main.view</text><path d="M360.5,485.0859 L360.5,509.0859 M360.5,497.0859 L377.5,497.0859 " fill="none" style="stroke:#181818;stroke-width:0.5;"/><ellipse cx="389.5" cy="497.0859" fill="#E2E2F0" rx="12" ry="12" style="stroke:#181818;stroke-width:0.5;"/><text fill="#000000" font-family="sans-serif" font-size="14" lengthAdjust="spacing" textLength="71" x="424.5" y="79.5332">Image.View</text><path d="M442.5,37 L442.5,61 M442.5,49 L459.5,49 " fill="none" style="stroke:#181818;stroke-width:0.5;"/><ellipse cx="471.5" cy="49" fill="#E2E2F0" rx="12" ry="12" style="stroke:#181818;stroke-width:0.5;"/><text fill="#000000" font-family="sans-serif" font-size="14" lengthAdjust="spacing" textLength="71" x="424.5" y="478.0098">Image.View</text><path d="M442.5,485.0859 L442.5,509.0859 M442.5,497.0859 L459.5,497.0859 " fill="none" style="stroke:#181818;stroke-width:0.5;"/><ellipse cx="471.5" cy="497.0859" fill="#E2E2F0" rx="12" ry="12" style="stroke:#181818;stroke-width:0.5;"/><text fill="#000000" font-family="sans-serif" font-size="14" lengthAdjust="spacing" textLength="100" x="531" y="79.5332">ImageController</text><ellipse cx="584" cy="49" fill="#E2E2F0" rx="12" ry="12" style="stroke:#181818;stroke-width:0.5;"/><polygon fill="#181818" points="580,37,586,32,584,37,586,42,580,37" style="stroke:#181818;stroke-width:1.0;"/><text fill="#000000" font-family="sans-serif" font-size="14" lengthAdjust="spacing" textLength="100" x="531" y="478.0098">ImageController</text><ellipse cx="584" cy="497.0859" fill="#E2E2F0" rx="12" ry="12" style="stroke:#181818;stroke-width:0.5;"/><polygon fill="#181818" points="580,485.0859,586,480.0859,584,485.0859,586,490.0859,580,485.0859" style="stroke:#181818;stroke-width:1.0;"/><text fill="#000000" font-family="sans-serif" font-size="14" lengthAdjust="spacing" textLength="19" x="735.5" y="79.5332">DB</text><ellipse cx="748" cy="49" fill="#E2E2F0" rx="12" ry="12" style="stroke:#181818;stroke-width:0.5;"/><line style="stroke:#181818;stroke-width:0.5;" x1="736" x2="760" y1="63" y2="63"/><text fill="#000000" font-family="sans-serif" font-size="14" lengthAdjust="spacing" textLength="19" x="735.5" y="478.0098">DB</text><ellipse cx="748" cy="497.0859" fill="#E2E2F0" rx="12" ry="12" style="stroke:#181818;stroke-width:0.5;"/><line style="stroke:#181818;stroke-width:0.5;" x1="736" x2="760" y1="511.0859" y2="511.0859"/><text fill="#000000" font-family="sans-serif" font-size="14" lengthAdjust="spacing" textLength="28" x="933" y="79.5332">DBE</text><ellipse cx="950" cy="49" fill="#E2E2F0" rx="12" ry="12" style="stroke:#181818;stroke-width:0.5;"/><line style="stroke:#181818;stroke-width:0.5;" x1="938" x2="962" y1="63" y2="63"/><text fill="#000000" font-family="sans-serif" font-size="14" lengthAdjust="spacing" textLength="28" x="933" y="478.0098">DBE</text><ellipse cx="950" cy="497.0859" fill="#E2E2F0" rx="12" ry="12" style="stroke:#181818;stroke-width:0.5;"/><line style="stroke:#181818;stroke-width:0.5;" x1="938" x2="962" y1="511.0859" y2="511.0859"/><text fill="#000000" font-family="sans-serif" font-size="14" lengthAdjust="spacing" textLength="76" x="977" y="79.5332">ImageModel</text><ellipse cx="1018" cy="49" fill="#E2E2F0" rx="12" ry="12" style="stroke:#181818;stroke-width:0.5;"/><line style="stroke:#181818;stroke-width:0.5;" x1="1006" x2="1030" y1="63" y2="63"/><text fill="#000000" font-family="sans-serif" font-size="14" lengthAdjust="spacing" textLength="76" x="977" y="478.0098">ImageModel</text><ellipse cx="1018" cy="497.0859" fill="#E2E2F0" rx="12" ry="12" style="stroke:#181818;stroke-width:0.5;"/><line style="stroke:#181818;stroke-width:0.5;" x1="1006" x2="1030" y1="511.0859" y2="511.0859"/><text fill="#000000" font-family="sans-serif" font-size="14" lengthAdjust="spacing" textLength="45" x="1216.5" y="79.5332">images</text><path d="M1224,29 C1224,19 1242,19 1242,19 C1242,19 1260,19 1260,29 L1260,55 C1260,65 1242,65 1242,65 C1242,65 1224,65 1224,55 L1224,29 " fill="#E2E2F0" style="stroke:#181818;stroke-width:1.5;"/><path d="M1224,29 C1224,39 1242,39 1242,39 C1242,39 1260,39 1260,29 " fill="none" style="stroke:#181818;stroke-width:1.5;"/><text fill="#000000" font-family="sans-serif" font-size="14" lengthAdjust="spacing" textLength="45" x="1216.5" y="478.0098">images</text><path d="M1224,491.0859 C1224,481.0859 1242,481.0859 1242,481.0859 C1242,481.0859 1260,481.0859 1260,491.0859 L1260,517.0859 C1260,527.0859 1242,527.0859 1242,527.0859 C1242,527.0859 1224,527.0859 1224,517.0859 L1224,491.0859 " fill="#E2E2F0" style="stroke:#181818;stroke-width:1.5;"/><path d="M1224,491.0859 C1224,501.0859 1242,501.0859 1242,501.0859 C1242,501.0859 1260,501.0859 1260,491.0859 " fill="none" style="stroke:#181818;stroke-width:1.5;"/><rect fill="#E2E2F0" height="31.6094" style="stroke:#181818;stroke-width:0.5;" width="59" x="1281.5" y="46"/><rect fill="#E2E2F0" height="31.6094" style="stroke:#181818;stroke-width:0.5;" width="59" x="1277.5" y="50"/><text fill="#000000" font-family="sans-serif" font-size="14" lengthAdjust="spacing" textLength="45" x="1284.5" y="71.5332">Images</text><rect fill="#E2E2F0" height="31.6094" style="stroke:#181818;stroke-width:0.5;" width="59" x="1281.5" y="463.4766"/><rect fill="#E2E2F0" height="31.6094" style="stroke:#181818;stroke-width:0.5;" width="59" x="1277.5" y="467.4766"/><text fill="#000000" font-family="sans-serif" font-size="14" lengthAdjust="spacing" textLength="45" x="1284.5" y="489.0098">Images</text><polygon fill="#181818" points="301,110.9609,311,114.9609,301,118.9609,305,114.9609" style="stroke:#181818;stroke-width:1.0;"/><line style="stroke:#181818;stroke-width:1.0;" x1="39" x2="307" y1="114.9609" y2="114.9609"/><text fill="#000000" font-family="sans-serif" font-size="13" lengthAdjust="spacing" textLength="169" x="46" y="110.1045">1:Need to see some Pictures</text><polygon fill="#181818" points="572,141.3125,582,145.3125,572,149.3125,576,145.3125" style="stroke:#181818;stroke-width:1.0;"/><line style="stroke:#181818;stroke-width:1.0;stroke-dasharray:2.0,2.0;" x1="313" x2="578" y1="145.3125" y2="145.3125"/><text fill="#000000" font-family="sans-serif" font-size="13" lengthAdjust="spacing" textLength="247" x="320" y="140.4561">1:1 new ImageController( new DB ( DBE ) )</text><polygon fill="#181818" points="736,171.6641,746,175.6641,736,179.6641,740,175.6641" style="stroke:#181818;stroke-width:1.0;"/><line style="stroke:#181818;stroke-width:1.0;stroke-dasharray:2.0,2.0;" x1="584" x2="742" y1="175.6641" y2="175.6641"/><text fill="#000000" font-family="sans-serif" font-size="13" lengthAdjust="spacing" textLength="140" x="591" y="170.8076">new DB ( BDE::MySQL)</text><polygon fill="#181818" points="759,202.0156,749,206.0156,759,210.0156,755,206.0156" style="stroke:#181818;stroke-width:1.0;"/><polygon fill="#181818" points="938,202.0156,948,206.0156,938,210.0156,942,206.0156" style="stroke:#181818;stroke-width:1.0;"/><line style="stroke:#181818;stroke-width:1.0;stroke-dasharray:2.0,2.0;" x1="753" x2="944" y1="206.0156" y2="206.0156"/><text fill="#000000" font-family="sans-serif" font-size="13" lengthAdjust="spacing" textLength="178" x="765" y="201.1592">getDNS(); getUser(); getPass()</text><polygon fill="#181818" points="1230,232.3672,1240,236.3672,1230,240.3672,1234,236.3672" style="stroke:#181818;stroke-width:1.0;"/><line style="stroke:#181818;stroke-width:1.0;" x1="584" x2="1236" y1="236.3672" y2="236.3672"/><text fill="#000000" font-family="sans-serif" font-size="13" lengthAdjust="spacing" textLength="634" x="591" y="231.5107">ImageController-&gt;fetchAll() : $stmt = $this-&gt;pdo-&gt;prepare(SELECT id,filename,title,description FROM images)</text><polygon fill="#181818" points="1253,246.3672,1243,250.3672,1253,254.3672,1249,250.3672" style="stroke:#181818;stroke-width:1.0;"/><polygon fill="#181818" points="1297,246.3672,1307,250.3672,1297,254.3672,1301,250.3672" style="stroke:#181818;stroke-width:1.0;"/><line style="stroke:#181818;stroke-width:1.0;stroke-dasharray:2.0,2.0;" x1="1247" x2="1303" y1="250.3672" y2="250.3672"/><polygon fill="#181818" points="595,276.7188,585,280.7188,595,284.7188,591,280.7188" style="stroke:#181818;stroke-width:1.0;"/><polygon fill="#181818" points="1230,276.7188,1240,280.7188,1230,284.7188,1234,280.7188" style="stroke:#181818;stroke-width:1.0;"/><line style="stroke:#181818;stroke-width:1.0;" x1="589" x2="1236" y1="280.7188" y2="280.7188"/><text fill="#000000" font-family="sans-serif" font-size="13" lengthAdjust="spacing" textLength="272" x="601" y="275.8623">ImageController-&gt;fetchAll() :  $stmt -&gt;execute()</text><polygon fill="#181818" points="595,307.0703,585,311.0703,595,315.0703,591,311.0703" style="stroke:#181818;stroke-width:1.0;"/><polygon fill="#181818" points="1006,307.0703,1016,311.0703,1006,315.0703,1010,311.0703" style="stroke:#181818;stroke-width:1.0;"/><line style="stroke:#181818;stroke-width:1.0;stroke-dasharray:2.0,2.0;" x1="589" x2="1012" y1="311.0703" y2="311.0703"/><text fill="#000000" font-family="sans-serif" font-size="13" lengthAdjust="spacing" textLength="403" x="601" y="306.2139">$results = $stmt-&gt;fetchAll(PDO::FETCH_CLASS, ImageModel::class)</text><polygon fill="#181818" points="324,337.4219,314,341.4219,324,345.4219,320,341.4219" style="stroke:#181818;stroke-width:1.0;"/><line style="stroke:#181818;stroke-width:1.0;" x1="318" x2="583" y1="341.4219" y2="341.4219"/><text fill="#000000" font-family="sans-serif" font-size="13" lengthAdjust="spacing" textLength="122" x="330" y="336.5654">1:0|1|* $images array</text><polygon fill="#181818" points="451,367.7734,461,371.7734,451,375.7734,455,371.7734" style="stroke:#181818;stroke-width:1.0;"/><line style="stroke:#181818;stroke-width:1.0;" x1="313" x2="457" y1="371.7734" y2="371.7734"/><text fill="#000000" font-family="sans-serif" font-size="13" lengthAdjust="spacing" textLength="48" x="320" y="366.917">render ()</text><polygon fill="#181818" points="392,398.125,382,402.125,392,406.125,388,402.125" style="stroke:#181818;stroke-width:1.0;"/><line style="stroke:#181818;stroke-width:1.0;" x1="386" x2="462" y1="402.125" y2="402.125"/><text fill="#000000" font-family="sans-serif" font-size="13" lengthAdjust="spacing" textLength="47" x="398" y="397.2686">+ layout</text><polygon fill="#181818" points="324,412.125,314,416.125,324,420.125,320,416.125" style="stroke:#181818;stroke-width:1.0;"/><line style="stroke:#181818;stroke-width:1.0;" x1="318" x2="380" y1="416.125" y2="416.125"/><polygon fill="#181818" points="50,442.4766,40,446.4766,50,450.4766,46,446.4766" style="stroke:#181818;stroke-width:1.0;"/><line style="stroke:#181818;stroke-width:1.0;" x1="44" x2="312" y1="446.4766" y2="446.4766"/><text fill="#000000" font-family="sans-serif" font-size="13" lengthAdjust="spacing" textLength="250" x="56" y="441.6201">he/she dont know how many work it was ;-)</text><!--MD5=[b4f2b1092c66c72cfe0f5d2ce9ed68a1]
@startuml

actor "Web User" as WU
boundary "index" as i
boundary "Main.view" as Mv
boundary "Image.View" as IV
control "ImageController" as IC
entity DB
entity DBE
entity ImageModel
database images
collections Images
WU -> i: 1:Need to see some Pictures

i - -> IC: 1:1 new ImageController( new DB ( DBE ) ) 

IC - -> DB : new DB ( BDE::MySQL)

DBE <- -> DB: getDNS(); getUser(); getPass()

IC -> images: ImageController->fetchAll() : $stmt = $this->pdo->prepare(SELECT id,filename,title,description FROM images)

images <- ->Images:

images <-> IC: ImageController->fetchAll() :  $stmt ->execute() 

IC <- -> ImageModel : $results = $stmt->fetchAll(PDO::FETCH_CLASS, ImageModel::class)

IC -> i : 1:0|1|* $images array

i -> IV: render ()

IV -> Mv: + layout

Mv -> i

i -> WU: he/she dont know how many work it was ;-)
@enduml

PlantUML version 1.2022.5(Sat Apr 30 12:55:52 CEST 2022)
(GPL source distribution)
Java Runtime: Java(TM) SE Runtime Environment
JVM: Java HotSpot(TM) 64-Bit Server VM
Default Encoding: UTF-8
Language: de
Country: DE
--></g></svg>