<?xml version="1.0" encoding="UTF-8" standalone="no"?><svg xmlns="http://www.w3.org/2000/svg" xmlns:xlink="http://www.w3.org/1999/xlink" contentStyleType="text/css" height="966px" preserveAspectRatio="none" style="width:1327px;height:966px;background:#FFFFFF;" version="1.1" viewBox="0 0 1327 966" width="1327px" zoomAndPan="magnify"><defs/><g><!--MD5=[bbfc6bfc62e6a49253148700fc9acd18]
cluster Cologne Picture Gallery--><g id="cluster_Cologne Picture Gallery"><rect height="877" rx="2.5" ry="2.5" style="stroke:#181818;stroke-width:1.0;fill:none;" width="1314" x="7" y="83.96"/><text fill="#000000" font-family="sans-serif" font-size="14" font-weight="bold" lengthAdjust="spacing" textLength="166" x="581" y="100.4932">Cologne Picture Gallery</text></g><!--MD5=[15636c1ca4a123c16a2a1a8e90aca7a9]
cluster Model--><g id="cluster_Model"><rect height="374" rx="2.5" ry="2.5" style="stroke:#181818;stroke-width:1.0;fill:none;" width="222" x="1067" y="144.96"/><text fill="#000000" font-family="sans-serif" font-size="14" font-weight="bold" lengthAdjust="spacing" textLength="44" x="1156" y="161.4932">Model</text></g><!--MD5=[e964c2537204c4818a6857a4ece8a291]
cluster C--><g id="cluster_C"><rect height="793" rx="2.5" ry="2.5" style="stroke:#181818;stroke-width:1.0;fill:none;" width="781" x="246" y="135.96"/><text fill="#000000" font-family="sans-serif" font-size="14" font-weight="bold" lengthAdjust="spacing" textLength="71" x="601" y="152.4932">Controller</text></g><!--MD5=[f0789761eec2cabcf7c4ba06675ad196]
cluster PHP 8.1--><g id="cluster_PHP 8.1"><path d="M485.5,562.96 L538.5,562.96 A3.75,3.75 0 0 1 541,565.46 L548,586.5694 L992.5,586.5694 A2.5,2.5 0 0 1 995,589.0694 L995,713.46 A2.5,2.5 0 0 1 992.5,715.96 L485.5,715.96 A2.5,2.5 0 0 1 483,713.46 L483,565.46 A2.5,2.5 0 0 1 485.5,562.96 " style="stroke:#000000;stroke-width:1.5;fill:none;"/><line style="stroke:#000000;stroke-width:1.5;fill:none;" x1="483" x2="548" y1="586.5694" y2="586.5694"/><text fill="#000000" font-family="sans-serif" font-size="14" font-weight="bold" lengthAdjust="spacing" textLength="52" x="487" y="579.4932">PHP 8.1</text></g><!--MD5=[e320b41f2d43b11d6de1346cab4ea5fc]
cluster View--><g id="cluster_View"><rect height="116" rx="2.5" ry="2.5" style="stroke:#181818;stroke-width:1.0;fill:none;" width="167" x="39" y="144.96"/><text fill="#000000" font-family="sans-serif" font-size="14" font-weight="bold" lengthAdjust="spacing" textLength="33" x="106" y="161.4932">View</text></g><!--MD5=[fe5c13e661ec308c9a0439e22e22ba7b]
class ImageModel--><g id="elem_ImageModel"><rect codeLine="3" fill="#F1F1F1" height="188.875" id="ImageModel" rx="2.5" ry="2.5" style="stroke:#181818;stroke-width:0.5;" width="166" x="1099" y="305.96"/><ellipse cx="1140.1" cy="321.96" fill="#ADD1B2" rx="11" ry="11" style="stroke:#181818;stroke-width:1.0;"/><path d="M1142.8656,317.835 Q1143.0219,317.6163 1143.2094,317.5069 Q1143.3969,317.3975 1143.6156,317.3975 Q1143.9906,317.3975 1144.225,317.6631 Q1144.4594,317.9131 1144.4594,318.5225 L1144.4594,319.9756 Q1144.4594,320.585 1144.225,320.8506 Q1143.9906,321.1163 1143.6156,321.1163 Q1143.2719,321.1163 1143.0688,320.9131 Q1142.8656,320.7256 1142.7563,320.21 Q1142.7094,319.8506 1142.5219,319.6631 Q1142.1938,319.2881 1141.5844,319.0694 Q1140.975,318.8506 1140.35,318.8506 Q1139.5844,318.8506 1138.9438,319.1788 Q1138.3188,319.5069 1137.8188,320.2569 Q1137.3344,321.0069 1137.3344,322.0381 L1137.3344,323.1319 Q1137.3344,324.3663 1138.225,325.1944 Q1139.1156,326.0069 1140.7094,326.0069 Q1141.6469,326.0069 1142.3031,325.7569 Q1142.6938,325.6006 1143.1156,325.1631 Q1143.3813,324.8975 1143.5219,324.8194 Q1143.6781,324.7413 1143.8813,324.7413 Q1144.2094,324.7413 1144.4594,325.0069 Q1144.725,325.2569 1144.725,325.6006 Q1144.725,325.9444 1144.3813,326.3506 Q1143.8813,326.9288 1143.0844,327.2569 Q1142.0063,327.71 1140.7094,327.71 Q1139.1938,327.71 1137.9906,327.085 Q1137.0063,326.585 1136.3188,325.5225 Q1135.6313,324.4444 1135.6313,323.1631 L1135.6313,322.0069 Q1135.6313,320.6788 1136.2406,319.5381 Q1136.8656,318.3819 1137.9594,317.7725 Q1139.0531,317.1475 1140.2875,317.1475 Q1141.0219,317.1475 1141.6625,317.3194 Q1142.3188,317.4756 1142.8656,317.835 Z " fill="#000000"/><text fill="#000000" font-family="sans-serif" font-size="14" lengthAdjust="spacing" textLength="76" x="1159.9" y="327.6885">ImageModel</text><line style="stroke:#181818;stroke-width:0.5;" x1="1100" x2="1264" y1="337.96" y2="337.96"/><rect fill="none" height="6" style="stroke:#C82930;stroke-width:1.0;" width="6" x="1107" y="345.96"/><text fill="#000000" font-family="sans-serif" font-size="14" lengthAdjust="spacing" textLength="38" x="1119" y="356.4932">id : int</text><rect fill="none" height="6" style="stroke:#C82930;stroke-width:1.0;" width="6" x="1107" y="363.5694"/><text fill="#000000" font-family="sans-serif" font-size="14" lengthAdjust="spacing" textLength="100" x="1119" y="374.1026">filename : string</text><rect fill="none" height="6" style="stroke:#C82930;stroke-width:1.0;" width="6" x="1107" y="381.1788"/><text fill="#000000" font-family="sans-serif" font-size="14" lengthAdjust="spacing" textLength="69" x="1119" y="391.712">title : string</text><rect fill="none" height="6" style="stroke:#C82930;stroke-width:1.0;" width="6" x="1107" y="398.7881"/><text fill="#000000" font-family="sans-serif" font-size="14" lengthAdjust="spacing" textLength="116" x="1119" y="409.3213">description : string</text><line style="stroke:#181818;stroke-width:0.5;" x1="1100" x2="1264" y1="416.3975" y2="416.3975"/><ellipse cx="1110" cy="427.3975" fill="#84BE84" rx="3" ry="3" style="stroke:#038048;stroke-width:1.0;"/><text fill="#000000" font-family="sans-serif" font-size="14" lengthAdjust="spacing" textLength="62" x="1119" y="434.9307">int getID()</text><ellipse cx="1110" cy="445.0069" fill="#84BE84" rx="3" ry="3" style="stroke:#038048;stroke-width:1.0;"/><text fill="#000000" font-family="sans-serif" font-size="14" lengthAdjust="spacing" textLength="128" x="1119" y="452.5401">string getFileName()</text><ellipse cx="1110" cy="462.6163" fill="#84BE84" rx="3" ry="3" style="stroke:#038048;stroke-width:1.0;"/><text fill="#000000" font-family="sans-serif" font-size="14" lengthAdjust="spacing" textLength="96" x="1119" y="470.1495">string getTitle()</text><ellipse cx="1110" cy="480.2256" fill="#84BE84" rx="3" ry="3" style="stroke:#038048;stroke-width:1.0;"/><text fill="#000000" font-family="sans-serif" font-size="14" lengthAdjust="spacing" textLength="140" x="1119" y="487.7588">string getDescription()</text></g><!--MD5=[964f074a2dd77d134c21b891bb53e381]
class Image--><g id="elem_Image"><rect fill="#F1F1F1" height="48" id="Image" rx="2.5" ry="2.5" style="stroke:#181818;stroke-width:0.5;" width="71" x="1146.5" y="188.96"/><ellipse cx="1161.5" cy="204.96" fill="#B4A7E5" rx="11" ry="11" style="stroke:#181818;stroke-width:1.0;"/><path d="M1162.4531,201.6006 L1162.4531,208.2569 L1164.1719,208.2569 Q1164.7813,208.2569 1165.0469,208.4913 Q1165.3125,208.7256 1165.3125,209.1163 Q1165.3125,209.4913 1165.0469,209.7256 Q1164.7813,209.96 1164.1719,209.96 L1159.0313,209.96 Q1158.4219,209.96 1158.1563,209.7256 Q1157.8906,209.4913 1157.8906,209.1006 Q1157.8906,208.7256 1158.1563,208.4913 Q1158.4219,208.2569 1159.0313,208.2569 L1160.75,208.2569 L1160.75,201.6006 L1159.0313,201.6006 Q1158.4219,201.6006 1158.1563,201.3663 Q1157.8906,201.1319 1157.8906,200.7413 Q1157.8906,200.3663 1158.1563,200.1319 Q1158.4219,199.8975 1159.0313,199.8975 L1164.1719,199.8975 Q1164.7813,199.8975 1165.0469,200.1319 Q1165.3125,200.3663 1165.3125,200.7413 Q1165.3125,201.1319 1165.0469,201.3663 Q1164.7813,201.6006 1164.1719,201.6006 L1162.4531,201.6006 Z " fill="#000000"/><text fill="#000000" font-family="sans-serif" font-size="14" font-style="italic" lengthAdjust="spacing" textLength="39" x="1175.5" y="210.6885">Image</text><line style="stroke:#181818;stroke-width:0.5;" x1="1147.5" x2="1216.5" y1="220.96" y2="220.96"/><line style="stroke:#181818;stroke-width:0.5;" x1="1147.5" x2="1216.5" y1="228.96" y2="228.96"/></g><!--MD5=[62db8e4c2d9e0408f5650e8d9a685ff5]
class DB--><g id="elem_DB"><rect codeLine="16" fill="#F1F1F1" height="188.875" id="DB" rx="2.5" ry="2.5" style="stroke:#181818;stroke-width:0.5;" width="186" x="278" y="554.96"/><ellipse cx="357.25" cy="570.96" fill="#ADD1B2" rx="11" ry="11" style="stroke:#181818;stroke-width:1.0;"/><path d="M360.0156,566.835 Q360.1719,566.6163 360.3594,566.5069 Q360.5469,566.3975 360.7656,566.3975 Q361.1406,566.3975 361.375,566.6631 Q361.6094,566.9131 361.6094,567.5225 L361.6094,568.9756 Q361.6094,569.585 361.375,569.8506 Q361.1406,570.1163 360.7656,570.1163 Q360.4219,570.1163 360.2188,569.9131 Q360.0156,569.7256 359.9063,569.21 Q359.8594,568.8506 359.6719,568.6631 Q359.3438,568.2881 358.7344,568.0694 Q358.125,567.8506 357.5,567.8506 Q356.7344,567.8506 356.0938,568.1788 Q355.4688,568.5069 354.9688,569.2569 Q354.4844,570.0069 354.4844,571.0381 L354.4844,572.1319 Q354.4844,573.3663 355.375,574.1944 Q356.2656,575.0069 357.8594,575.0069 Q358.7969,575.0069 359.4531,574.7569 Q359.8438,574.6006 360.2656,574.1631 Q360.5313,573.8975 360.6719,573.8194 Q360.8281,573.7413 361.0313,573.7413 Q361.3594,573.7413 361.6094,574.0069 Q361.875,574.2569 361.875,574.6006 Q361.875,574.9444 361.5313,575.3506 Q361.0313,575.9288 360.2344,576.2569 Q359.1563,576.71 357.8594,576.71 Q356.3438,576.71 355.1406,576.085 Q354.1563,575.585 353.4688,574.5225 Q352.7813,573.4444 352.7813,572.1631 L352.7813,571.0069 Q352.7813,569.6788 353.3906,568.5381 Q354.0156,567.3819 355.1094,566.7725 Q356.2031,566.1475 357.4375,566.1475 Q358.1719,566.1475 358.8125,566.3194 Q359.4688,566.4756 360.0156,566.835 Z " fill="#000000"/><text fill="#000000" font-family="sans-serif" font-size="14" lengthAdjust="spacing" textLength="19" x="377.75" y="576.6885">DB</text><line style="stroke:#181818;stroke-width:0.5;" x1="279" x2="463" y1="586.96" y2="586.96"/><rect fill="none" height="6" style="stroke:#C82930;stroke-width:1.0;" width="6" x="286" y="594.96"/><text fill="#000000" font-family="sans-serif" font-size="14" lengthAdjust="spacing" textLength="160" x="298" y="605.4932">iniPath = "../DB/config.ini"</text><rect fill="none" height="6" style="stroke:#C82930;stroke-width:1.0;" width="6" x="286" y="612.5694"/><text fill="#000000" font-family="sans-serif" font-size="14" lengthAdjust="spacing" textLength="64" x="298" y="623.1026">dbe : DBE</text><rect fill="none" height="6" style="stroke:#C82930;stroke-width:1.0;" width="6" x="286" y="630.1788"/><text fill="#000000" font-family="sans-serif" font-size="14" lengthAdjust="spacing" textLength="70" x="298" y="640.712">dns : string</text><rect fill="none" height="6" style="stroke:#C82930;stroke-width:1.0;" width="6" x="286" y="647.7881"/><text fill="#000000" font-family="sans-serif" font-size="14" lengthAdjust="spacing" textLength="75" x="298" y="658.3213">user : string</text><rect fill="none" height="6" style="stroke:#C82930;stroke-width:1.0;" width="6" x="286" y="665.3975"/><text fill="#000000" font-family="sans-serif" font-size="14" lengthAdjust="spacing" textLength="77" x="298" y="675.9307">pass : string</text><line style="stroke:#181818;stroke-width:0.5;" x1="279" x2="463" y1="683.0069" y2="683.0069"/><ellipse cx="289" cy="694.0069" fill="#84BE84" rx="3" ry="3" style="stroke:#038048;stroke-width:1.0;"/><text fill="#000000" font-family="sans-serif" font-size="14" lengthAdjust="spacing" textLength="105" x="298" y="701.5401">getDNS() : string</text><ellipse cx="289" cy="711.6163" fill="#84BE84" rx="3" ry="3" style="stroke:#038048;stroke-width:1.0;"/><text fill="#000000" font-family="sans-serif" font-size="14" lengthAdjust="spacing" textLength="106" x="298" y="719.1495">getUser() : string</text><ellipse cx="289" cy="729.2256" fill="#84BE84" rx="3" ry="3" style="stroke:#038048;stroke-width:1.0;"/><text fill="#000000" font-family="sans-serif" font-size="14" lengthAdjust="spacing" textLength="108" x="298" y="736.7588">getPass() : string</text></g><!--MD5=[1d7ba1c7002d54515419844fbd155368]
class Controller--><g id="elem_Controller"><rect codeLine="27" fill="#F1F1F1" height="65.6094" id="Controller" rx="2.5" ry="2.5" style="stroke:#181818;stroke-width:0.5;" width="221" x="462.5" y="179.96"/><ellipse cx="537.75" cy="195.96" fill="#B4A7E5" rx="11" ry="11" style="stroke:#181818;stroke-width:1.0;"/><path d="M538.7031,192.6006 L538.7031,199.2569 L540.4219,199.2569 Q541.0313,199.2569 541.2969,199.4913 Q541.5625,199.7256 541.5625,200.1163 Q541.5625,200.4913 541.2969,200.7256 Q541.0313,200.96 540.4219,200.96 L535.2813,200.96 Q534.6719,200.96 534.4063,200.7256 Q534.1406,200.4913 534.1406,200.1006 Q534.1406,199.7256 534.4063,199.4913 Q534.6719,199.2569 535.2813,199.2569 L537,199.2569 L537,192.6006 L535.2813,192.6006 Q534.6719,192.6006 534.4063,192.3663 Q534.1406,192.1319 534.1406,191.7413 Q534.1406,191.3663 534.4063,191.1319 Q534.6719,190.8975 535.2813,190.8975 L540.4219,190.8975 Q541.0313,190.8975 541.2969,191.1319 Q541.5625,191.3663 541.5625,191.7413 Q541.5625,192.1319 541.2969,192.3663 Q541.0313,192.6006 540.4219,192.6006 L538.7031,192.6006 Z " fill="#000000"/><text fill="#000000" font-family="sans-serif" font-size="14" font-style="italic" lengthAdjust="spacing" textLength="62" x="558.25" y="201.6885">Controller</text><line style="stroke:#181818;stroke-width:0.5;" x1="463.5" x2="682.5" y1="211.96" y2="211.96"/><line style="stroke:#181818;stroke-width:0.5;" x1="463.5" x2="682.5" y1="219.96" y2="219.96"/><ellipse cx="473.5" cy="230.96" fill="#84BE84" rx="3" ry="3" style="stroke:#038048;stroke-width:1.0;"/><text fill="#000000" font-family="sans-serif" font-size="14" lengthAdjust="spacing" textLength="195" x="482.5" y="238.4932">fetchAll() : array &lt;Object&gt; | null</text></g><!--MD5=[6a6037a4625d36d1df6c06733c8c6098]
class ImageController--><g id="elem_ImageController"><rect codeLine="31" fill="#F1F1F1" height="100.8281" id="ImageController" rx="2.5" ry="2.5" style="stroke:#181818;stroke-width:0.5;" width="260" x="443" y="349.96"/><ellipse cx="518.75" cy="365.96" fill="#ADD1B2" rx="11" ry="11" style="stroke:#181818;stroke-width:1.0;"/><path d="M521.5156,361.835 Q521.6719,361.6163 521.8594,361.5069 Q522.0469,361.3975 522.2656,361.3975 Q522.6406,361.3975 522.875,361.6631 Q523.1094,361.9131 523.1094,362.5225 L523.1094,363.9756 Q523.1094,364.585 522.875,364.8506 Q522.6406,365.1163 522.2656,365.1163 Q521.9219,365.1163 521.7188,364.9131 Q521.5156,364.7256 521.4063,364.21 Q521.3594,363.8506 521.1719,363.6631 Q520.8438,363.2881 520.2344,363.0694 Q519.625,362.8506 519,362.8506 Q518.2344,362.8506 517.5938,363.1788 Q516.9688,363.5069 516.4688,364.2569 Q515.9844,365.0069 515.9844,366.0381 L515.9844,367.1319 Q515.9844,368.3663 516.875,369.1944 Q517.7656,370.0069 519.3594,370.0069 Q520.2969,370.0069 520.9531,369.7569 Q521.3438,369.6006 521.7656,369.1631 Q522.0313,368.8975 522.1719,368.8194 Q522.3281,368.7413 522.5313,368.7413 Q522.8594,368.7413 523.1094,369.0069 Q523.375,369.2569 523.375,369.6006 Q523.375,369.9444 523.0313,370.3506 Q522.5313,370.9288 521.7344,371.2569 Q520.6563,371.71 519.3594,371.71 Q517.8438,371.71 516.6406,371.085 Q515.6563,370.585 514.9688,369.5225 Q514.2813,368.4444 514.2813,367.1631 L514.2813,366.0069 Q514.2813,364.6788 514.8906,363.5381 Q515.5156,362.3819 516.6094,361.7725 Q517.7031,361.1475 518.9375,361.1475 Q519.6719,361.1475 520.3125,361.3194 Q520.9688,361.4756 521.5156,361.835 Z " fill="#000000"/><text fill="#000000" font-family="sans-serif" font-size="14" lengthAdjust="spacing" textLength="100" x="539.25" y="371.6885">ImageController</text><line style="stroke:#181818;stroke-width:0.5;" x1="444" x2="702" y1="381.96" y2="381.96"/><rect fill="none" height="6" style="stroke:#C82930;stroke-width:1.0;" width="6" x="451" y="389.96"/><text fill="#000000" font-family="sans-serif" font-size="14" lengthAdjust="spacing" textLength="66" x="463" y="400.4932">pdo : PDO</text><rect fill="none" height="6" style="stroke:#C82930;stroke-width:1.0;" width="6" x="451" y="407.5694"/><text fill="#000000" font-family="sans-serif" font-size="14" lengthAdjust="spacing" textLength="47" x="463" y="418.1026">db : DB</text><line style="stroke:#181818;stroke-width:0.5;" x1="444" x2="702" y1="425.1788" y2="425.1788"/><ellipse cx="454" cy="436.1788" fill="#84BE84" rx="3" ry="3" style="stroke:#038048;stroke-width:1.0;"/><text fill="#000000" font-family="sans-serif" font-size="14" lengthAdjust="spacing" textLength="234" x="463" y="443.712">fetchAll() :  array &lt;ImageModel&gt; | null</text></g><!--MD5=[29de60c9a5203e29a189a6875bc78c95]
class DBE--><g id="elem_DBE"><rect codeLine="46" fill="#F1F1F1" height="100.8281" id="DBE" rx="2.5" ry="2.5" style="stroke:#181818;stroke-width:0.5;" width="89" x="326.5" y="803.96"/><ellipse cx="354.55" cy="819.96" fill="#EB937F" rx="11" ry="11" style="stroke:#181818;stroke-width:1.0;"/><path d="M353.4094,820.7569 L353.4094,823.2569 L357.7375,823.2569 L357.7375,822.335 Q357.7375,821.7256 357.9719,821.46 Q358.2219,821.1944 358.5969,821.1944 Q358.9719,821.1944 359.2063,821.46 Q359.4406,821.7256 359.4406,822.335 L359.4406,824.96 L351.4406,824.96 Q350.8156,824.96 350.55,824.7256 Q350.3,824.4913 350.3,824.1006 Q350.3,823.7256 350.5656,823.4913 Q350.8313,823.2569 351.4406,823.2569 L351.7063,823.2569 L351.7063,816.6006 L351.4406,816.6006 Q350.8156,816.6006 350.55,816.3663 Q350.3,816.1319 350.3,815.7413 Q350.3,815.3663 350.55,815.1319 Q350.8156,814.8975 351.4406,814.8975 L359.0656,814.8975 L359.0656,817.4913 Q359.0656,818.1006 358.8313,818.3663 Q358.6125,818.6163 358.2219,818.6163 Q357.8469,818.6163 357.6125,818.3663 Q357.3781,818.1006 357.3781,817.4913 L357.3781,816.6006 L353.4094,816.6006 L353.4094,819.0538 L354.8938,819.0538 Q354.8938,818.3975 355.0188,818.21 Q355.2844,817.8038 355.7531,817.8038 Q356.1281,817.8038 356.3625,818.0694 Q356.5969,818.3194 356.5969,818.9288 L356.5969,820.8975 Q356.5969,821.4444 356.4719,821.6319 Q356.2063,822.0225 355.7531,822.0225 Q355.2844,822.0225 355.0188,821.6163 Q354.8938,821.4288 354.8938,820.7569 L353.4094,820.7569 Z " fill="#000000"/><text fill="#000000" font-family="sans-serif" font-size="14" lengthAdjust="spacing" textLength="28" x="371.45" y="825.6885">DBE</text><line style="stroke:#181818;stroke-width:0.5;" x1="327.5" x2="414.5" y1="835.96" y2="835.96"/><text fill="#000000" font-family="sans-serif" font-size="14" lengthAdjust="spacing" textLength="46" x="332.5" y="854.4932">MySQL</text><text fill="#000000" font-family="sans-serif" font-size="14" lengthAdjust="spacing" textLength="43" x="332.5" y="872.1026">SQLite</text><text fill="#000000" font-family="sans-serif" font-size="14" lengthAdjust="spacing" textLength="77" x="332.5" y="889.712">PostgreSQL</text><line style="stroke:#181818;stroke-width:0.5;" x1="327.5" x2="414.5" y1="896.7881" y2="896.7881"/></g><!--MD5=[a33c3fb28c09da4e5111d6677a3a34ed]
class PDO--><g id="elem_PDO"><rect codeLine="39" fill="#F1F1F1" height="100.8281" id="PDO" rx="2.5" ry="2.5" style="stroke:#181818;stroke-width:0.5;" width="480" x="499" y="598.96"/><ellipse cx="719.75" cy="614.96" fill="#ADD1B2" rx="11" ry="11" style="stroke:#181818;stroke-width:1.0;"/><path d="M722.5156,610.835 Q722.6719,610.6163 722.8594,610.5069 Q723.0469,610.3975 723.2656,610.3975 Q723.6406,610.3975 723.875,610.6631 Q724.1094,610.9131 724.1094,611.5225 L724.1094,612.9756 Q724.1094,613.585 723.875,613.8506 Q723.6406,614.1163 723.2656,614.1163 Q722.9219,614.1163 722.7188,613.9131 Q722.5156,613.7256 722.4063,613.21 Q722.3594,612.8506 722.1719,612.6631 Q721.8438,612.2881 721.2344,612.0694 Q720.625,611.8506 720,611.8506 Q719.2344,611.8506 718.5938,612.1788 Q717.9688,612.5069 717.4688,613.2569 Q716.9844,614.0069 716.9844,615.0381 L716.9844,616.1319 Q716.9844,617.3663 717.875,618.1944 Q718.7656,619.0069 720.3594,619.0069 Q721.2969,619.0069 721.9531,618.7569 Q722.3438,618.6006 722.7656,618.1631 Q723.0313,617.8975 723.1719,617.8194 Q723.3281,617.7413 723.5313,617.7413 Q723.8594,617.7413 724.1094,618.0069 Q724.375,618.2569 724.375,618.6006 Q724.375,618.9444 724.0313,619.3506 Q723.5313,619.9288 722.7344,620.2569 Q721.6563,620.71 720.3594,620.71 Q718.8438,620.71 717.6406,620.085 Q716.6563,619.585 715.9688,618.5225 Q715.2813,617.4444 715.2813,616.1631 L715.2813,615.0069 Q715.2813,613.6788 715.8906,612.5381 Q716.5156,611.3819 717.6094,610.7725 Q718.7031,610.1475 719.9375,610.1475 Q720.6719,610.1475 721.3125,610.3194 Q721.9688,610.4756 722.5156,610.835 Z " fill="#000000"/><text fill="#000000" font-family="sans-serif" font-size="14" lengthAdjust="spacing" textLength="30" x="740.25" y="620.6885">PDO</text><line style="stroke:#181818;stroke-width:0.5;" x1="500" x2="978" y1="630.96" y2="630.96"/><line style="stroke:#181818;stroke-width:0.5;" x1="500" x2="978" y1="638.96" y2="638.96"/><ellipse cx="510" cy="649.96" fill="#84BE84" rx="3" ry="3" style="stroke:#038048;stroke-width:1.0;"/><text fill="#000000" font-family="sans-serif" font-size="14" lengthAdjust="spacing" textLength="98" x="519" y="657.4932">prepare() : stmt</text><ellipse cx="510" cy="667.5694" fill="#84BE84" rx="3" ry="3" style="stroke:#038048;stroke-width:1.0;"/><text fill="#000000" font-family="sans-serif" font-size="14" lengthAdjust="spacing" textLength="97" x="519" y="675.1026">execute() : stmt</text><ellipse cx="510" cy="685.1788" fill="#84BE84" rx="3" ry="3" style="stroke:#038048;stroke-width:1.0;"/><text fill="#000000" font-family="sans-serif" font-size="14" lengthAdjust="spacing" textLength="454" x="519" y="692.712">fetchAll(PDO::FETCH_CLASS, ImageModel::class) : array&lt;ImageModel&gt;</text></g><!--MD5=[374cffc4387e99f2ee163738ffdce237]
class ImageView--><g id="elem_ImageView"><rect codeLine="59" fill="#F1F1F1" height="48" id="ImageView" rx="2.5" ry="2.5" style="stroke:#181818;stroke-width:0.5;" width="99" x="82.5" y="188.96"/><ellipse cx="97.5" cy="204.96" fill="#ADD1B2" rx="11" ry="11" style="stroke:#181818;stroke-width:1.0;"/><path d="M100.2656,200.835 Q100.4219,200.6163 100.6094,200.5069 Q100.7969,200.3975 101.0156,200.3975 Q101.3906,200.3975 101.625,200.6631 Q101.8594,200.9131 101.8594,201.5225 L101.8594,202.9756 Q101.8594,203.585 101.625,203.8506 Q101.3906,204.1163 101.0156,204.1163 Q100.6719,204.1163 100.4688,203.9131 Q100.2656,203.7256 100.1563,203.21 Q100.1094,202.8506 99.9219,202.6631 Q99.5938,202.2881 98.9844,202.0694 Q98.375,201.8506 97.75,201.8506 Q96.9844,201.8506 96.3438,202.1788 Q95.7188,202.5069 95.2188,203.2569 Q94.7344,204.0069 94.7344,205.0381 L94.7344,206.1319 Q94.7344,207.3663 95.625,208.1944 Q96.5156,209.0069 98.1094,209.0069 Q99.0469,209.0069 99.7031,208.7569 Q100.0938,208.6006 100.5156,208.1631 Q100.7813,207.8975 100.9219,207.8194 Q101.0781,207.7413 101.2813,207.7413 Q101.6094,207.7413 101.8594,208.0069 Q102.125,208.2569 102.125,208.6006 Q102.125,208.9444 101.7813,209.3506 Q101.2813,209.9288 100.4844,210.2569 Q99.4063,210.71 98.1094,210.71 Q96.5938,210.71 95.3906,210.085 Q94.4063,209.585 93.7188,208.5225 Q93.0313,207.4444 93.0313,206.1631 L93.0313,205.0069 Q93.0313,203.6788 93.6406,202.5381 Q94.2656,201.3819 95.3594,200.7725 Q96.4531,200.1475 97.6875,200.1475 Q98.4219,200.1475 99.0625,200.3194 Q99.7188,200.4756 100.2656,200.835 Z " fill="#000000"/><text fill="#000000" font-family="sans-serif" font-size="14" lengthAdjust="spacing" textLength="67" x="111.5" y="210.6885">ImageView</text><line style="stroke:#181818;stroke-width:0.5;" x1="83.5" x2="180.5" y1="220.96" y2="220.96"/><line style="stroke:#181818;stroke-width:0.5;" x1="83.5" x2="180.5" y1="228.96" y2="228.96"/></g><!--MD5=[5ea07da524a2cb72fb5d0a9b1b65e687]
reverse link Image to ImageModel--><g id="link_Image_ImageModel"><path d="M1182,257.16 C1182,271.76 1182,288.68 1182,305.65 " fill="none" id="Image-backto-ImageModel" style="stroke:#181818;stroke-width:1.0;stroke-dasharray:7.0,7.0;"/><polygon fill="none" points="1175,257.08,1182,237.08,1189,257.08,1175,257.08" style="stroke:#181818;stroke-width:1.0;"/></g><!--MD5=[80e135b7077415eb864a750b145e92cc]
reverse link Controller to ImageController--><g id="link_Controller_ImageController"><path d="M573,266.32 C573,292.47 573,323.95 573,349.73 " fill="none" id="Controller-backto-ImageController" style="stroke:#181818;stroke-width:1.0;stroke-dasharray:7.0,7.0;"/><polygon fill="none" points="566,266.27,573,246.27,580,266.27,566,266.27" style="stroke:#181818;stroke-width:1.0;"/></g><!--MD5=[98ab322c9ff8af37607f5dfaa96e52b6]
reverse link ImageController to PDO--><g id="link_ImageController_PDO"><path codeLine="52" d="M613.74,462.08 C642,504.13 679.17,559.43 705.66,598.85 " fill="none" id="ImageController-backto-PDO" style="stroke:#181818;stroke-width:1.0;"/><polygon fill="#181818" points="606.39,451.15,606.4142,458.3611,613.0799,461.1122,613.0557,453.9012,606.39,451.15" style="stroke:#181818;stroke-width:1.0;"/><text fill="#000000" font-family="sans-serif" font-size="13" lengthAdjust="spacing" textLength="7" x="603.2197" y="472.1983">1</text><text fill="#000000" font-family="sans-serif" font-size="13" lengthAdjust="spacing" textLength="7" x="693.4794" y="588.1399">1</text></g><!--MD5=[2aae9dc6a0e5d10c8448a99de8dd58c5]
reverse link DB to DBE--><g id="link_DB_DBE"><path codeLine="53" d="M371,757.28 C371,773.53 371,789.6 371,803.81 " fill="none" id="DB-backto-DBE" style="stroke:#181818;stroke-width:1.0;"/><polygon fill="#181818" points="371,744.24,367,750.24,371,756.24,375,750.24,371,744.24" style="stroke:#181818;stroke-width:1.0;"/><text fill="#000000" font-family="sans-serif" font-size="13" lengthAdjust="spacing" textLength="7" x="363.743" y="765.3005">1</text><text fill="#000000" font-family="sans-serif" font-size="13" lengthAdjust="spacing" textLength="7" x="363.5078" y="793.0943">1</text></g><!--MD5=[d7acf8f55b96b57f3582572b7f562448]
reverse link ImageController to DB--><g id="link_ImageController_DB"><path codeLine="54" d="M523.84,461.58 C500.92,489.6 473.11,523.6 447.53,554.88 " fill="none" id="ImageController-backto-DB" style="stroke:#181818;stroke-width:1.0;"/><polygon fill="#181818" points="532.37,451.15,525.4762,453.2656,524.7776,460.4428,531.6714,458.3272,532.37,451.15" style="stroke:#181818;stroke-width:1.0;"/><text fill="#000000" font-family="sans-serif" font-size="13" lengthAdjust="spacing" textLength="7" x="519.7158" y="472.1983">1</text><text fill="#000000" font-family="sans-serif" font-size="13" lengthAdjust="spacing" textLength="7" x="446.3496" y="544.2198">1</text></g><!--MD5=[08ae370d1500847368467a12a0b664d4]
link View to C--><g id="link_View_C"><path d="M40.5305,144.3839 C40.5364,144.1042 40.5428,143.8242 40.5496,143.5439 C40.5771,142.4229 40.612,141.2976 40.655,140.1688 C42.03,104.045 51.59,64.29 83.5,45.96 C120.88,24.49 143.12,24.49 180.5,45.96 C214.56,65.525 232.87,105.3175 242.6963,141.1525 C243.9245,145.6319 245.0203,150.0494 245.9976,154.3579 " fill="none" id="View-C" style="stroke:#181818;stroke-width:1.0;"/><polygon fill="#181818" points="245.9976,154.3579,247.9075,144.696,244.8915,149.4818,240.1057,146.4658,245.9976,154.3579" style="stroke:#181818;stroke-width:1.0;"/><polygon fill="#181818" points="40.5305,144.3839,44.7199,135.4705,40.6362,139.385,36.7217,135.3013,40.5305,144.3839" style="stroke:#181818;stroke-width:1.0;"/></g><!--MD5=[34d50b25994246c791d610ec1f1f7b93]
link C to Model--><g id="link_C_Model"><path d="M245.8914,176.4415 C245.8141,175.9673 245.7373,175.49 245.6611,175.0097 C245.5088,174.0491 245.3589,173.0766 245.212,172.0929 C244.9182,170.1255 244.6363,168.1134 244.3702,166.0626 C243.306,157.8598 242.4959,149.0397 242.1963,139.9963 C240.9975,103.8225 247.965,64.075 279.5,45.96 C349.06,6 931.94,6 1001.5,45.96 C1035.56,65.525 1053.87,105.3175 1063.6963,141.1525 C1064.9245,145.6319 1066.0203,150.0494 1066.9976,154.3579 " fill="none" id="C-Model" style="stroke:#181818;stroke-width:1.0;"/><polygon fill="#181818" points="1066.9976,154.3579,1068.9075,144.696,1065.8915,149.4818,1061.1057,146.4658,1066.9976,154.3579" style="stroke:#181818;stroke-width:1.0;"/><polygon fill="#181818" points="245.8914,176.4415,248.3905,166.915,245.0866,171.5067,240.4949,168.2028,245.8914,176.4415" style="stroke:#181818;stroke-width:1.0;"/></g><!--MD5=[6585cc2ee3c70ab39cffe0457255509f]
@startuml
rectangle "Cologne Picture Gallery" {
rectangle Model{
class ImageModel implements Image {
    - id : int 
    - filename : string
    - title : string
    - description : string
    + int getID()
    + string getFileName()
    + string getTitle()
    + string getDescription()
}
}

rectangle "Controller" as C {
class DB {
    - iniPath = "../DB/config.ini"
    - dbe : DBE
    - dns : string
    - user : string 
    - pass : string
    + getDNS() : string
    + getUser() : string
    + getPass() : string
}

interface Controller {
    + fetchAll() : array <Object> | null
}

class ImageController implements Controller{
    - pdo : PDO
    - db : DB
    + fetchAll() :  array <ImageModel> | null

}

package "PHP 8.1" <<Folder>> {
    class PDO {
        + prepare() : stmt
        + execute() : stmt
        + fetchAll(PDO::FETCH_CLASS, ImageModel::class) : array<ImageModel>
    }
}

enum DBE{
    MySQL
    SQLite
    PostgreSQL
}

ImageController "1" *- - "1" PDO
DB "1" *- - "1" DBE
ImageController "1" *- - "1" DB
} 


rectangle View {
    class ImageView {

    }
}

View <-> C
C <-> Model 

}
@enduml

PlantUML version 1.2022.5(Sat Apr 30 12:55:52 CEST 2022)
(GPL source distribution)
Java Runtime: Java(TM) SE Runtime Environment
JVM: Java HotSpot(TM) 64-Bit Server VM
Default Encoding: UTF-8
Language: de
Country: DE
--></g></svg>